<svg id="Layer_1" enable-background="new 0 0 512 512" height="512" viewBox="0 0 512 512" width="512" xmlns="http://www.w3.org/2000/svg"><g><path d="m158.136 186.75c11.667 11.667 30.759 11.667 42.426 0 11.667-11.667 11.667-30.759 0-42.426l-101.823-101.823c-11.667-11.667-30.759-11.667-42.426 0-11.667 11.667-11.667 30.759 0 42.426z"/><path d="m497 177.999h-91.958l-29.965 29.964c-11.31 11.309-26.377 17.537-42.426 17.537-16.05 0-31.117-6.228-42.427-17.537-8.515-8.515-13.915-18.977-16.231-29.964h-35.976c-2.363 11.285-7.921 21.644-16.242 29.964-11.309 11.309-26.376 17.537-42.426 17.537s-31.117-6.228-42.426-17.537l-29.964-29.964h-91.959c-8.284 0-15 6.716-15 15v43.001c0 8.284 6.716 15 15 15h482c8.284 0 15-6.716 15-15v-43.001c0-8.284-6.716-15-15-15z"/><path d="m311.438 186.75c11.667 11.667 30.759 11.667 42.426 0l101.823-101.823c11.667-11.667 11.667-30.759 0-42.426-11.667-11.667-30.759-11.667-42.426 0l-101.824 101.823c-11.667 11.667-11.667 30.759.001 42.426z"/><path d="m80.053 445.171c5.739 19.785 24.174 33.079 45.875 33.079h260.077c21.721 0 40.16-13.309 45.886-33.116 15.793-54.639 31.761-109.774 47.512-164.134h-446.905c15.115 52.326 47.555 164.171 47.555 164.171zm244.805-26.074 14.633-100.969c1.188-8.198 8.798-13.883 16.996-12.693 8.198 1.188 13.882 8.798 12.693 16.996l-14.633 100.969c-1.082 7.469-7.494 12.851-14.826 12.851-.716 0-1.44-.051-2.17-.157-8.197-1.189-13.881-8.799-12.693-16.997zm-83.952-98.818c0-8.284 6.716-15 15-15 8.285 0 15 6.716 15 15v100.969c0 8.284-6.716 15-15 15s-15-6.716-15-15zm-85.582-14.844c8.202-1.188 15.808 4.496 16.996 12.693l14.633 100.969c1.188 8.198-4.495 15.808-12.693 16.996-.729.106-1.455.157-2.17.157-7.332 0-13.743-5.381-14.826-12.851l-14.633-100.969c-1.189-8.198 4.494-15.808 12.693-16.995z"/></g></svg>