<?xml version="1.0" encoding="iso-8859-1"?>
<!-- Generator: Adobe Illustrator 19.0.0, SVG Export Plug-In . SVG Version: 6.00 Build 0)  -->
<svg version="1.1" id="Capa_1" xmlns="http://www.w3.org/2000/svg" xmlns:xlink="http://www.w3.org/1999/xlink" x="0px" y="0px"
	 viewBox="0 0 512 512" style="enable-background:new 0 0 512 512;" xml:space="preserve">
<g>
	<g>
		<path d="M295,127.99H166.894c-5.522,0-10,4.477-10,10s4.477,10,10,10H295c5.522,0,10-4.477,10-10S300.522,127.99,295,127.99z"/>
	</g>
</g>
<g>
	<g>
		<path d="M86.61,130.917c-1.85-1.86-4.43-2.93-7.06-2.93c-2.64,0-5.22,1.07-7.08,2.93c-1.86,1.87-2.93,4.44-2.93,7.07
			c0,2.64,1.069,5.21,2.93,7.07c1.86,1.87,4.44,2.93,7.08,2.93c2.63,0,5.21-1.06,7.06-2.93c1.87-1.85,2.931-4.43,2.931-7.07
			C89.541,135.357,88.48,132.777,86.61,130.917z"/>
	</g>
</g>
<g>
	<g>
		<path d="M57.019,130.917c-1.859-1.86-4.439-2.93-7.069-2.93c-2.631,0-5.21,1.07-7.07,2.93c-1.86,1.87-2.93,4.44-2.93,7.07
			s1.069,5.21,2.93,7.07c1.86,1.87,4.439,2.93,7.07,2.93c2.63,0,5.21-1.06,7.069-2.93c1.86-1.86,2.931-4.43,2.931-7.07
			C59.95,135.357,58.88,132.777,57.019,130.917z"/>
	</g>
</g>
<g>
	<g>
		<path d="M116.21,130.917c-1.86-1.86-4.44-2.93-7.07-2.93s-5.21,1.07-7.07,2.93c-1.859,1.86-2.93,4.44-2.93,7.07
			c0,2.64,1.07,5.21,2.93,7.07c1.86,1.87,4.44,2.93,7.07,2.93s5.21-1.06,7.07-2.93c1.859-1.86,2.93-4.43,2.93-7.07
			C119.14,135.357,118.07,132.787,116.21,130.917z"/>
	</g>
</g>
<g>
	<g>
		<path d="M186.569,214.917c-1.859-1.86-4.439-2.93-7.069-2.93s-5.21,1.07-7.07,2.93s-2.93,4.44-2.93,7.07
			c0,2.64,1.069,5.21,2.93,7.08c1.86,1.86,4.44,2.92,7.07,2.92s5.21-1.06,7.069-2.92c1.86-1.87,2.931-4.45,2.931-7.08
			S188.43,216.787,186.569,214.917z"/>
	</g>
</g>
<g>
	<g>
		<path d="M298,211.99h-84.001c-5.522,0-10,4.477-10,10s4.478,10,10,10H288v76H60v-76h82c5.522,0,10-4.477,10-10s-4.478-10-10-10H50
			c-5.522,0-10,4.477-10,10v96c0,5.523,4.478,10,10,10h248c5.522,0,10-4.477,10-10v-96C308,216.468,303.522,211.99,298,211.99z"/>
	</g>
</g>
<g>
	<g>
		<path d="M459,36.01H330.894c-5.522,0-10,4.477-10,10s4.478,10,10,10H459c5.522,0,10-4.478,10-10
			C469,40.487,464.522,36.01,459,36.01z"/>
	</g>
</g>
<g>
	<g>
		<path d="M250.609,38.937c-1.859-1.861-4.439-2.93-7.069-2.93s-5.2,1.07-7.07,2.93c-1.86,1.86-2.92,4.44-2.92,7.07
			c0,2.64,1.06,5.21,2.92,7.07c1.86,1.87,4.44,2.93,7.07,2.93c2.64,0,5.21-1.06,7.069-2.93c1.87-1.86,2.94-4.44,2.94-7.07
			S252.479,40.797,250.609,38.937z"/>
	</g>
</g>
<g>
	<g>
		<path d="M221.019,38.937c-1.859-1.861-4.439-2.93-7.069-2.93c-2.631,0-5.21,1.07-7.07,2.93s-2.93,4.44-2.93,7.07
			c0,2.64,1.069,5.21,2.93,7.07c1.86,1.87,4.439,2.93,7.07,2.93c2.63,0,5.21-1.06,7.069-2.93c1.86-1.86,2.931-4.43,2.931-7.07
			C223.95,43.377,222.88,40.797,221.019,38.937z"/>
	</g>
</g>
<g>
	<g>
		<path d="M280.21,38.937c-1.86-1.861-4.44-2.93-7.07-2.93s-5.21,1.07-7.07,2.93c-1.859,1.86-2.93,4.44-2.93,7.07
			c0,2.64,1.07,5.21,2.93,7.08c1.86,1.86,4.44,2.92,7.07,2.92s5.21-1.06,7.07-2.92c1.859-1.87,2.93-4.45,2.93-7.08
			S282.07,40.807,280.21,38.937z"/>
	</g>
</g>
<g>
	<g>
		<path d="M470,0.01H206c-23.159,0-42,18.841-42,42v49.98H42c-23.159,0-42,18.841-42,42v336c0,23.159,18.841,42,42,42h264
			c23.159,0,42-18.841,42-42v-49.98h122c23.159,0,42-18.841,42-42v-336C512,18.851,493.159,0.01,470,0.01z M328,469.99
			c0,12.131-9.869,22-22,22H42c-12.131,0-22-9.869-22-22v-286h308V469.99z M328,163.99H20v-30c0-12.13,9.869-22,22-22h264
			c12.131,0,22,9.869,22,22V163.99z M492,72.01H351c-5.522,0-10,4.477-10,10s4.478,10,10,10h141v286c0,12.13-9.869,22-22,22H348
			v-164h114c5.522,0,10-4.477,10-10v-96c0-5.523-4.478-10-10-10H345.598c-5.774-16.305-21.34-28.02-39.598-28.02H184V42.01
			c0-12.131,9.869-22,22-22h264c12.131,0,22,9.869,22,22V72.01z M350.095,216.01v-76H452v76H350.095z"/>
	</g>
</g>
<g>
	<g>
		<path d="M98,355.99H50c-5.522,0-10,4.477-10,10v48c0,5.523,4.478,10,10,10h48c5.522,0,10-4.477,10-10v-48
			C108,360.468,103.522,355.99,98,355.99z M88,403.99H60v-28h28V403.99z"/>
	</g>
</g>
<g>
	<g>
		<path d="M198,355.99h-48c-5.522,0-10,4.477-10,10v48c0,5.523,4.478,10,10,10h48c5.522,0,10-4.477,10-10v-48
			C208,360.468,203.522,355.99,198,355.99z M188,403.99h-28v-28h28V403.99z"/>
	</g>
</g>
<g>
	<g>
		<path d="M298,355.99h-48c-5.522,0-10,4.477-10,10v48c0,5.523,4.478,10,10,10h48c5.522,0,10-4.477,10-10v-48
			C308,360.468,303.522,355.99,298,355.99z M288,403.99h-28v-28h28V403.99z"/>
	</g>
</g>
<g>
	<g>
		<path d="M98,443.987H50c-5.522,0-10,4.477-10,10s4.478,10,10,10h48c5.522,0,10-4.477,10-10S103.522,443.987,98,443.987z"/>
	</g>
</g>
<g>
	<g>
		<path d="M198,443.987h-48c-5.522,0-10,4.477-10,10s4.478,10,10,10h48c5.522,0,10-4.477,10-10S203.522,443.987,198,443.987z"/>
	</g>
</g>
<g>
	<g>
		<path d="M298,443.987h-48c-5.522,0-10,4.477-10,10s4.478,10,10,10h48c5.522,0,10-4.477,10-10S303.522,443.987,298,443.987z"/>
	</g>
</g>
<g>
	<g>
		<path d="M462,312.01h-78c-5.522,0-10,4.477-10,10s4.478,10,10,10h78c5.522,0,10-4.477,10-10S467.522,312.01,462,312.01z"/>
	</g>
</g>
<g>
	<g>
		<path d="M422.998,264.01H384c-5.522,0-10,4.477-10,10s4.478,10,10,10h38.998c5.522,0,10-4.477,10-10S428.52,264.01,422.998,264.01
			z"/>
	</g>
</g>
<g>
	<g>
		<path d="M469.069,266.937c-1.859-1.861-4.439-2.93-7.069-2.93s-5.21,1.07-7.07,2.93c-1.86,1.86-2.93,4.44-2.93,7.07
			c0,2.64,1.069,5.22,2.93,7.07c1.86,1.87,4.44,2.93,7.07,2.93s5.21-1.06,7.069-2.93c1.86-1.86,2.931-4.43,2.931-7.07
			C472,271.377,470.93,268.797,469.069,266.937z"/>
	</g>
</g>
<g>
</g>
<g>
</g>
<g>
</g>
<g>
</g>
<g>
</g>
<g>
</g>
<g>
</g>
<g>
</g>
<g>
</g>
<g>
</g>
<g>
</g>
<g>
</g>
<g>
</g>
<g>
</g>
<g>
</g>
</svg>
