<?xml version="1.0" encoding="iso-8859-1"?>
<!-- Generator: Adobe Illustrator 19.0.0, SVG Export Plug-In . SVG Version: 6.00 Build 0)  -->
<svg version="1.1" id="Capa_1" xmlns="http://www.w3.org/2000/svg" xmlns:xlink="http://www.w3.org/1999/xlink" x="0px" y="0px"
	 viewBox="0 0 512 512" style="enable-background:new 0 0 512 512;" xml:space="preserve">
<g>
	<g>
		<path d="M256.947,353.997c-5.523,0-10,4.477-10,10s4.477,10,10,10h0.095c5.523,0,9.952-4.477,9.952-10
			S262.47,353.997,256.947,353.997z"/>
	</g>
</g>
<g>
	<g>
		<path d="M463.408,316.927c-1.87-1.86-4.44-2.93-7.08-2.93c-2.63,0-5.21,1.07-7.07,2.93s-2.93,4.44-2.93,7.07
			c0,2.64,1.07,5.22,2.93,7.08s4.44,2.92,7.07,2.92c2.64,0,5.21-1.06,7.08-2.92c1.86-1.87,2.92-4.44,2.92-7.08
			C466.328,321.367,465.268,318.787,463.408,316.927z"/>
	</g>
</g>
<g>
	<g>
		<path d="M132.151,276.928c-1.86-1.86-4.44-2.93-7.07-2.93c-2.63,0-5.21,1.07-7.07,2.93c-1.86,1.86-2.93,4.44-2.93,7.07
			c0,2.63,1.07,5.21,2.93,7.07s4.44,2.93,7.07,2.93c2.64,0,5.21-1.07,7.07-2.93c1.86-1.86,2.93-4.44,2.93-7.07
			C135.081,281.368,134.011,278.788,132.151,276.928z"/>
	</g>
</g>
<g>
	<g>
		<path d="M469.998,40h-8c-5.523,0-10,4.477-10,10c0,5.523,4.477,10,10,10h8c12.131,0,22,9.869,22,22v281.998
			c0,16.542-13.458,30-30,30H50.002c-16.542,0-30-13.458-30-30v-29.996h391.664c5.523,0,10-4.477,10-10c0-5.523-4.477-10-10-10
			H306.167v-82.253h6.284c5.523,0,10-4.477,10-10s-4.477-10-10-10h-3.035l21.315-65.18c1.251-3.828,0.085-8.034-2.96-10.669
			l-0.675-0.584C303.107,114.551,283.524,88.682,269.949,60h6.032c5.523,0,10-4.477,10-10v-8.331
			c60.443,13.221,105.759,65.676,110.205,127.524h-9.268c-5.523,0-10,4.477-10,10v40c0,5.523,4.477,10,10,10h39.966
			c5.523,0,10-4.477,10-10v-40c0-5.523-4.477-10-10-10h-10.653c-2.191-35.247-15.912-68.872-39.203-95.602
			C365.285,60.116,351.488,48.804,336.284,40h47.001c4.128,11.639,15.243,20,28.28,20c16.542,0,30-13.458,30-30s-13.458-30-30-30
			c-13.036,0-24.151,8.361-28.28,20h-97.304V10c0-5.523-4.477-10-10-10h-39.963c-5.523,0-10,4.477-10,10v10h-97.304
			c-4.128-11.639-15.243-20-28.28-20c-16.542,0-30,13.458-30,30s13.458,30,30,30c13.037,0,24.152-8.361,28.28-20h46.826
			c-15.178,8.789-28.956,20.077-40.686,33.524c-23.329,26.741-37.07,60.391-39.263,95.67H85.116c-5.523,0-10,4.477-10,10v40
			c0,5.523,4.477,10,10,10h39.966c5.523,0,10-4.477,10-10v-40c0-5.523-4.477-10-10-10h-9.448
			c4.448-61.93,49.842-114.405,110.384-127.562V50c0,5.523,4.477,10,10,10h6.032c-13.575,28.683-33.158,54.552-57.146,75.315
			l-0.675,0.584c-3.045,2.636-4.212,6.841-2.96,10.669l21.315,65.18h-0.864c-5.523,0-10,4.477-10,10s4.477,10,10,10h4.656v82.253
			H20.002v-20.003h67.081c5.523,0,10-4.477,10-10c0-5.523-4.477-10-10-10H20.002V81.999c0-12.131,9.869-22,22-22h7.985
			c5.523,0,10-4.477,10-10c0-5.523-4.477-10-10-10h-7.985c-23.159,0-42,18.841-42,42v281.998c0,27.57,22.43,50,50,50H202V452h-14
			c-23.159,0-42,18.841-42,42v8c0,5.523,4.477,10,10,10h199.998c5.523,0,10-4.477,10-10v-8c0-23.159-18.841-42-42-42h-14v-38.004
			h151.999c27.57,0,50-22.43,50-50V81.999C511.998,58.841,493.157,40,469.998,40z M396.918,189.193h19.966v20h-19.966V189.193z
			 M411.565,20c5.514,0,10,4.486,10,10s-4.486,10-10,10s-10-4.486-10-10S406.051,20,411.565,20z M100.435,40
			c-5.514,0-10-4.486-10-10s4.486-10,10-10c5.514,0,10,4.486,10,10S105.949,40,100.435,40z M115.082,209.192H95.116v-20h19.966
			V209.192z M286.167,314.002h-59.791v-82.253h59.791V314.002z M265.982,20v20h-19.963V20H265.982z M202.322,146.6
			c16.854-15.3,31.576-32.96,43.678-52.254v55.494c0,5.523,4.477,10,10,10c5.523,0,10-4.477,10-10V94.346
			c12.102,19.294,26.823,36.954,43.678,52.254l-21.305,65.148h-64.745L202.322,146.6z M222,413.997h68V452h-68V413.997z
			 M323.999,472c11.457,0,20.896,8.802,21.91,20H166.091c1.013-11.198,10.453-20,21.91-20H323.999z"/>
	</g>
</g>
<g>
</g>
<g>
</g>
<g>
</g>
<g>
</g>
<g>
</g>
<g>
</g>
<g>
</g>
<g>
</g>
<g>
</g>
<g>
</g>
<g>
</g>
<g>
</g>
<g>
</g>
<g>
</g>
<g>
</g>
</svg>
