<?xml version="1.0" encoding="iso-8859-1"?>
<!-- Generator: Adobe Illustrator 19.0.0, SVG Export Plug-In . SVG Version: 6.00 Build 0)  -->
<svg version="1.1" id="Layer_1" xmlns="http://www.w3.org/2000/svg" xmlns:xlink="http://www.w3.org/1999/xlink" x="0px" y="0px"
	 viewBox="0 0 512 512" style="enable-background:new 0 0 512 512;" xml:space="preserve">
<g>
	<g>
		<path d="M421.487,116.236h-53.079c24.92-19.045,32.982-54.016,17.535-82.408C368.871,2.449,329.454-9.187,298.079,7.883
			c-16.413,8.929-31.06,31.928-39.242,46.798c-8.185-14.872-22.825-37.85-39.228-46.775c-15.198-8.268-32.708-10.125-49.305-5.225
			c-16.596,4.901-30.29,15.97-38.559,31.17s-10.125,32.71-5.225,49.305c3.939,13.34,11.872,24.799,22.724,33.078H90.511
			c-20.479,0-37.139,16.66-37.139,37.139v85.875c0,13.258,6.989,24.909,17.471,31.482v203.719c0,20.706,16.845,37.551,37.551,37.551
			h295.212c20.706,0,37.551-16.845,37.551-37.551V270.731c10.482-6.573,17.471-18.223,17.471-31.482v-85.875
			C458.627,132.896,441.965,116.236,421.487,116.236z M292.502,80.223c10.769-21.151,21.935-33.683,25.515-35.69
			c3.492-1.9,7.261-2.801,10.982-2.801c8.179,0,16.115,4.357,20.291,12.034c2.944,5.41,3.604,11.644,1.859,17.55
			c-1.744,5.907-5.684,10.78-11.094,13.724c-2.827,1.538-6.037,3.368-9.754,5.488c-9.865,5.626-22.141,12.628-33.932,17.934
			c-7.551,3.398-12.826,5.144-16.365,6.036C281.111,107.584,284.553,95.839,292.502,80.223z M168.396,53.791
			c2.943-5.41,7.818-9.35,13.724-11.094c2.163-0.638,4.37-0.955,6.563-0.955c3.797,0,7.556,0.948,10.982,2.812
			c3.585,2.008,14.751,14.542,25.521,35.693c7.951,15.616,11.393,27.361,12.498,34.277c-3.54-0.891-8.815-2.638-16.365-6.036
			c-11.791-5.306-24.069-12.308-33.932-17.934c-3.716-2.12-6.926-3.95-9.754-5.488c-5.41-2.943-9.35-7.818-11.094-13.724
			C164.791,65.435,165.452,59.201,168.396,53.791z M199.099,470.277h-86.533V276.388h86.533V470.277z M273.867,470.277h-33.045
			V276.388h33.045V470.277z M399.434,470.277h-83.843V276.388h83.843V470.277z M417.361,235.123H94.638v-77.621h322.723V235.123z"/>
	</g>
</g>
<g>
</g>
<g>
</g>
<g>
</g>
<g>
</g>
<g>
</g>
<g>
</g>
<g>
</g>
<g>
</g>
<g>
</g>
<g>
</g>
<g>
</g>
<g>
</g>
<g>
</g>
<g>
</g>
<g>
</g>
</svg>
