<?xml version="1.0" encoding="iso-8859-1"?>
<!-- Generator: Adobe Illustrator 19.0.0, SVG Export Plug-In . SVG Version: 6.00 Build 0)  -->
<svg version="1.1" id="Capa_1" xmlns="http://www.w3.org/2000/svg" xmlns:xlink="http://www.w3.org/1999/xlink" x="0px" y="0px"
	 viewBox="0 0 512.001 512.001" style="enable-background:new 0 0 512.001 512.001;" xml:space="preserve">
<g>
	<g>
		<path d="M450.372,222.019l-29.615-7.379l-15.484-37.364l15.716-26.145c2.366-3.936,1.748-8.977-1.499-12.224L378.05,97.469
			c-3.249-3.247-8.289-3.864-12.224-1.499l-26.145,15.716l-37.364-15.484l-7.379-29.615c-1.109-4.455-5.111-7.582-9.703-7.582
			h-58.59c-4.592,0-8.594,3.127-9.703,7.582l-7.379,29.615L172.2,111.686L146.055,95.97c-3.935-2.365-8.978-1.748-12.224,1.499
			l-41.438,41.438c-3.247,3.247-3.865,8.288-1.499,12.224l15.716,26.145L91.125,214.64l-29.615,7.379
			c-4.456,1.109-7.583,5.111-7.583,9.703v58.591c0,4.592,3.127,8.594,7.583,9.703l29.615,7.379l15.484,37.363l-15.716,26.145
			c-2.366,3.936-1.748,8.977,1.499,12.224l41.438,41.438c3.248,3.247,8.289,3.865,12.224,1.499l26.145-15.716l17.938,7.434
			c0.116,2.048,0.182,4.106,0.182,6.176v1.417v53.482c0,18.275,14.868,33.144,33.144,33.144h65.182
			c18.275,0,33.144-14.868,33.144-33.144v-53.482v-1.415c0-2.099,0.071-4.192,0.197-6.277l17.696-7.334l26.145,15.716
			c1.599,0.962,3.38,1.43,5.149,1.43c2.586,0,5.146-1.001,7.074-2.929l41.438-41.438c3.247-3.247,3.865-8.288,1.499-12.224
			l-15.716-26.145l15.484-37.363l29.615-7.379c4.456-1.109,7.583-5.111,7.583-9.703v-58.591
			C457.955,227.13,454.828,223.128,450.372,222.019z M288.644,492h-65.182c-7.247,0-13.144-5.896-13.144-13.144V472h33.121
			c5.522,0,10-4.478,10-10c0-5.522-4.478-10-10-10h-33.121v-16.626h91.469v43.482h0.001C301.789,486.103,295.893,492,288.644,492z
			 M302.086,415.374h-92.05c-1.953-29.413-13.928-56.808-34.213-77.898c-20.829-21.654-31.85-50.154-31.031-80.25
			c1.611-59.238,51.162-107.773,110.457-108.192c0.271-0.002,0.54-0.003,0.81-0.003c29.589,0,57.411,11.46,78.42,32.321
			c21.204,21.055,32.881,49.104,32.881,78.983c0,28.536-10.786,55.671-30.372,76.405
			C316.313,358.628,304.099,386.275,302.086,415.374z M437.956,282.498h-0.001l-26.924,6.708c-3.077,0.767-5.607,2.946-6.821,5.875
			l-19.345,46.679c-1.214,2.93-0.967,6.262,0.668,8.98l14.288,23.769l-30.388,30.388l-23.769-14.288
			c-2.717-1.633-6.049-1.882-8.981-0.668l-10.591,4.389c4.769-16.107,13.405-31.121,25.434-43.855
			c23.107-24.464,35.833-56.476,35.833-90.14c0-35.248-13.775-68.338-38.788-93.175c-25.011-24.835-58.163-38.402-93.463-38.127
			c-34.081,0.241-66.348,13.593-90.856,37.595c-24.515,24.009-38.525,55.99-39.452,90.055
			c-0.966,35.494,12.036,69.111,36.609,94.658c11.768,12.235,20.194,27.023,24.812,43.168l-11.023-4.568
			c-2.931-1.215-6.263-0.966-8.98,0.668l-23.769,14.288l-30.388-30.388l14.288-23.769c1.635-2.719,1.882-6.051,0.668-8.98
			l-19.345-46.679c-1.214-2.929-3.744-5.108-6.821-5.875l-26.924-6.708v-42.962l26.924-6.708c3.077-0.767,5.607-2.946,6.821-5.875
			l19.345-46.68c1.214-2.93,0.967-6.262-0.668-8.98l-14.288-23.769l30.388-30.388l23.769,14.288c2.718,1.634,6.051,1.883,8.98,0.668
			l46.68-19.345c2.929-1.214,5.108-3.744,5.875-6.82l6.708-26.924h42.961l6.708,26.924c0.767,3.076,2.946,5.606,5.875,6.82
			l46.68,19.345c2.93,1.214,6.262,0.966,8.98-0.668l23.769-14.288l30.388,30.388l-14.288,23.769
			c-1.635,2.719-1.882,6.051-0.668,8.98l19.345,46.68c1.214,2.929,3.744,5.108,6.821,5.875l26.924,6.708V282.498z"/>
	</g>
</g>
<g>
	<g>
		<path d="M209.951,250.27c-1.86-1.871-4.44-2.93-7.07-2.93s-5.21,1.06-7.069,2.93c-1.86,1.86-2.931,4.431-2.931,7.07
			c0,2.63,1.07,5.21,2.931,7.07c1.859,1.859,4.439,2.93,7.069,2.93s5.21-1.07,7.07-2.93c1.86-1.87,2.93-4.44,2.93-7.07
			S211.812,252.13,209.951,250.27z"/>
	</g>
</g>
<g>
	<g>
		<path d="M263.01,250.27c-1.859-1.871-4.439-2.93-7.069-2.93s-5.21,1.06-7.07,2.93c-1.86,1.86-2.93,4.44-2.93,7.07
			s1.069,5.21,2.93,7.07c1.86,1.859,4.44,2.93,7.07,2.93s5.21-1.07,7.069-2.93c1.86-1.86,2.931-4.44,2.931-7.07
			S264.87,252.13,263.01,250.27z"/>
	</g>
</g>
<g>
	<g>
		<path d="M316.07,250.27c-1.86-1.871-4.44-2.93-7.07-2.93s-5.21,1.06-7.069,2.93c-1.86,1.851-2.931,4.431-2.931,7.07
			c0,2.63,1.07,5.21,2.931,7.07c1.859,1.859,4.439,2.93,7.069,2.93s5.21-1.07,7.07-2.93c1.86-1.87,2.93-4.44,2.93-7.07
			S317.932,252.13,316.07,250.27z"/>
	</g>
</g>
<g>
	<g>
		<path d="M255.94,0c-5.522,0-10,4.478-10,10v24.487c0,5.523,4.478,10,10,10c5.522,0,10-4.478,10-10V10
			C265.94,4.478,261.463,0,255.94,0z"/>
	</g>
</g>
<g>
	<g>
		<path d="M98.164,84.079L66.164,52.081c-3.906-3.904-10.236-3.904-14.143,0c-3.905,3.905-3.905,10.237,0,14.143l31.999,31.999
			c1.954,1.952,4.512,2.928,7.072,2.928s5.118-0.977,7.071-2.929C102.068,94.317,102.068,87.985,98.164,84.079z"/>
	</g>
</g>
<g>
	<g>
		<path d="M459.979,51.962c-3.906-3.904-10.236-3.904-14.143,0l-32,32c-3.905,3.905-3.905,10.237,0,14.143
			c1.953,1.952,4.512,2.929,7.071,2.929s5.118-0.977,7.071-2.929l32-32C463.885,62.199,463.885,55.867,459.979,51.962z"/>
	</g>
</g>
<g>
	<g>
		<path d="M284.51,454.93c-1.859-1.86-4.439-2.93-7.069-2.93s-5.21,1.069-7.07,2.93c-1.86,1.861-2.93,4.44-2.93,7.07
			s1.069,5.21,2.93,7.069c1.86,1.861,4.441,2.931,7.07,2.931c2.63,0,5.21-1.07,7.069-2.931c1.86-1.859,2.931-4.439,2.931-7.069
			S286.37,456.79,284.51,454.93z"/>
	</g>
</g>
<g>
	<g>
		<path d="M255.569,166c-0.025,0-0.052,0-0.077,0l-0.389,0.002c-5.522,0.042-9.966,4.553-9.925,10.075
			c0.042,5.497,4.51,9.925,9.998,9.925c0.025,0,0.052,0,0.077,0l0.389-0.002c5.522-0.042,9.966-4.553,9.925-10.075
			C265.526,170.428,261.057,166,255.569,166z"/>
	</g>
</g>
<g>
	<g>
		<path d="M340.938,219.69c-9.921-20.751-27.027-37.145-48.168-46.162c-5.082-2.167-10.955,0.194-13.122,5.274
			c-2.167,5.08,0.194,10.955,5.274,13.122c16.665,7.108,30.15,20.032,37.973,36.393c1.717,3.591,5.297,5.688,9.028,5.688
			c1.446,0,2.915-0.314,4.307-0.98C341.214,230.644,343.322,224.673,340.938,219.69z"/>
	</g>
</g>
<g>
</g>
<g>
</g>
<g>
</g>
<g>
</g>
<g>
</g>
<g>
</g>
<g>
</g>
<g>
</g>
<g>
</g>
<g>
</g>
<g>
</g>
<g>
</g>
<g>
</g>
<g>
</g>
<g>
</g>
</svg>
