<svg width="512" height="512" viewBox="0 0 512 512" fill="none" xmlns="http://www.w3.org/2000/svg">
<g clip-path="url(#clip0)">
<path d="M256.001 372.001C235.048 372.001 218.001 389.048 218.001 410.001C218.001 430.954 235.048 448.001 256.001 448.001C276.954 448.001 294.001 430.954 294.001 410.001C294.001 389.048 276.955 372.001 256.001 372.001ZM256.001 428.001C246.076 428.001 238.001 419.926 238.001 410.001C238.001 400.076 246.076 392.001 256.001 392.001C265.926 392.001 274.001 400.076 274.001 410.001C274.001 419.926 265.926 428.001 256.001 428.001Z" fill="black"/>
<path d="M256.001 75.2C206.799 75.2 166.772 115.228 166.772 164.429V218.106C166.773 267.307 206.8 307.335 256.001 307.335C305.202 307.335 345.23 267.307 345.23 218.106V164.429C345.23 115.228 305.203 75.2 256.001 75.2ZM325.229 218.105C325.229 256.278 294.173 287.334 256 287.334C217.827 287.334 186.771 256.278 186.771 218.105V193.868H186.773H205.503C230.094 193.868 253.437 182.678 268.948 164.027L274.986 169.958C288.713 183.441 306.313 191.625 325.229 193.468V218.105V218.105ZM325.23 173.325C311.6 171.567 298.959 165.47 289.002 155.69L274.612 141.556C272.425 139.409 269.38 138.384 266.336 138.771C263.297 139.16 260.604 140.92 259.027 143.549C247.816 162.251 227.307 173.869 205.503 173.869H186.773V164.43C186.773 126.256 217.829 95.2 256.001 95.2C294.174 95.2 325.23 126.256 325.23 164.429V173.325V173.325Z" fill="black"/>
<path d="M478.069 492.001H457.959V416.735C457.959 382.247 435.021 351.839 402.007 342.256C392.216 322.004 371.464 308.001 347.503 308.001H164.5C140.538 308.001 119.787 322.004 109.996 342.256C76.982 351.839 54.044 382.247 54.044 416.735V492.001H33.934C28.412 492.001 23.934 496.478 23.934 502.001C23.934 507.524 28.412 512.001 33.934 512.001H478.069C483.591 512.001 488.069 507.524 488.069 502.001C488.069 496.478 483.591 492.001 478.069 492.001ZM104.001 368.5V492H74.044V416.735C74.044 395.377 85.9 376.128 104.059 366.204C104.03 366.967 104.001 367.73 104.001 368.5ZM388.001 492.001H164.008V445.668C164.008 440.145 159.53 435.668 154.008 435.668C148.486 435.668 144.008 440.145 144.008 445.668V492.001H124.001V368.501C124.001 346.169 142.169 328.001 164.5 328.001H347.502C369.833 328.001 388.001 346.169 388.001 368.501V492.001V492.001ZM437.958 492.001H408.001V368.501C408.001 367.731 407.972 366.968 407.943 366.205C426.103 376.128 437.958 395.377 437.958 416.735V492.001Z" fill="black"/>
<path d="M508.702 95.024L498.375 85.696C498.488 84.111 498.546 82.522 498.546 80.938C498.546 79.354 498.488 77.765 498.375 76.18L508.702 66.852C512.203 63.689 513.017 58.509 510.655 54.425L494.507 26.504C492.148 22.425 487.263 20.546 482.776 21.995L469.56 26.266C466.927 24.478 464.173 22.885 461.315 21.498L458.404 7.908C457.416 3.297 453.341 0.0019989 448.626 0.0019989H416.374C411.658 0.0019989 407.584 3.296 406.596 7.908L403.685 21.498C400.827 22.885 398.073 24.478 395.44 26.266L382.224 21.995C377.738 20.545 372.852 22.425 370.493 26.504L354.345 54.425C351.983 58.509 352.797 63.689 356.298 66.852L366.625 76.18C366.512 77.765 366.454 79.354 366.454 80.938C366.454 82.522 366.512 84.111 366.625 85.696L356.298 95.024C352.797 98.187 351.983 103.366 354.345 107.451L370.493 135.372C372.852 139.451 377.738 141.33 382.224 139.881L395.44 135.61C398.073 137.398 400.827 138.991 403.685 140.378L406.596 153.968C407.584 158.579 411.659 161.874 416.374 161.874H448.626C453.342 161.874 457.416 158.58 458.404 153.968L461.315 140.378C464.173 138.991 466.927 137.398 469.56 135.61L482.776 139.881C487.263 141.33 492.148 139.451 494.507 135.372L510.655 107.451C513.017 103.367 512.203 98.187 508.702 95.024ZM477.988 73.744C478.359 76.112 478.548 78.532 478.548 80.937C478.548 83.342 478.36 85.762 477.988 88.13C477.467 91.464 478.661 94.837 481.165 97.099L489.294 104.441L481.24 118.365L470.82 114.997C467.605 113.959 464.079 114.614 461.452 116.741C457.694 119.784 453.513 122.202 449.023 123.929C445.87 125.142 443.543 127.865 442.835 131.168L440.542 141.873H424.46L422.167 131.168C421.459 127.865 419.132 125.142 415.979 123.929C411.49 122.202 407.308 119.784 403.55 116.741C400.923 114.613 397.397 113.957 394.182 114.997L383.762 118.365L375.708 104.441L383.837 97.099C386.341 94.837 387.536 91.464 387.014 88.13C386.643 85.762 386.454 83.342 386.454 80.937C386.454 78.532 386.642 76.112 387.014 73.744C387.535 70.41 386.341 67.037 383.837 64.775L375.708 57.433L383.762 43.509L394.182 46.877C397.4 47.917 400.923 47.261 403.55 45.133C407.308 42.09 411.489 39.672 415.979 37.945C419.132 36.732 421.459 34.009 422.167 30.706L424.46 20.001H440.542L442.835 30.706C443.543 34.009 445.87 36.732 449.023 37.945C453.512 39.672 457.694 42.09 461.452 45.133C464.079 47.26 467.602 47.915 470.82 46.877L481.24 43.509L489.294 57.433L481.165 64.775C478.661 67.037 477.467 70.41 477.988 73.744Z" fill="black"/>
<path d="M509.07 310.921C507.211 309.051 504.631 307.991 502.001 307.991C499.371 307.991 496.791 309.051 494.931 310.921C493.071 312.781 492.001 315.361 492.001 317.991C492.001 320.621 493.07 323.201 494.931 325.061C496.791 326.921 499.371 327.991 502.001 327.991C504.631 327.991 507.211 326.921 509.07 325.061C510.93 323.201 512.001 320.621 512.001 317.991C512.001 315.351 510.931 312.781 509.07 310.921Z" fill="black"/>
<path d="M466.334 308.001H417.091C411.569 308.001 407.091 312.478 407.091 318.001C407.091 323.524 411.569 328.001 417.091 328.001H466.334C471.856 328.001 476.334 323.524 476.334 318.001C476.334 312.478 471.856 308.001 466.334 308.001Z" fill="black"/>
<path d="M403.268 259.996H377.668C372.146 259.996 367.668 264.473 367.668 269.996C367.668 275.519 372.146 279.996 377.668 279.996H403.268C408.791 279.996 413.268 275.519 413.268 269.996C413.268 264.473 408.79 259.996 403.268 259.996Z" fill="black"/>
<path d="M502.001 259.996H442.691C437.169 259.996 432.691 264.473 432.691 269.996C432.691 275.519 437.169 279.996 442.691 279.996H502.001C507.524 279.996 512.001 275.519 512.001 269.996C512.001 264.473 507.523 259.996 502.001 259.996Z" fill="black"/>
<path d="M439.57 73.871C437.711 72.001 435.131 70.941 432.501 70.941C429.871 70.941 427.291 72.001 425.431 73.871C423.571 75.731 422.501 78.301 422.501 80.941C422.501 83.571 423.57 86.151 425.431 88.011C427.292 89.871 429.872 90.941 432.501 90.941C435.131 90.941 437.711 89.871 439.57 88.011C441.43 86.151 442.501 83.571 442.501 80.941C442.501 78.302 441.431 75.731 439.57 73.871Z" fill="black"/>
<path d="M235.82 216.801C233.961 214.941 231.381 213.871 228.751 213.871C226.121 213.871 223.541 214.941 221.681 216.801C219.821 218.661 218.751 221.241 218.751 223.871C218.751 226.501 219.82 229.081 221.681 230.941C223.541 232.801 226.122 233.871 228.751 233.871C231.381 233.871 233.961 232.801 235.82 230.941C237.68 229.081 238.751 226.501 238.751 223.871C238.751 221.241 237.681 218.661 235.82 216.801Z" fill="black"/>
<path d="M290.32 216.801C288.461 214.941 285.881 213.871 283.251 213.871C280.61 213.871 278.041 214.941 276.181 216.801C274.321 218.661 273.251 221.241 273.251 223.871C273.251 226.501 274.32 229.081 276.181 230.941C278.041 232.801 280.622 233.871 283.251 233.871C285.881 233.871 288.461 232.801 290.32 230.941C292.18 229.081 293.251 226.501 293.251 223.871C293.251 221.241 292.181 218.661 290.32 216.801Z" fill="black"/>
<path d="M161.061 402.931C159.202 401.071 156.631 400.001 153.992 400.001C151.361 400.001 148.782 401.071 146.922 402.931C145.062 404.791 143.992 407.371 143.992 410.001C143.992 412.631 145.061 415.211 146.922 417.071C148.783 418.931 151.361 420.001 153.992 420.001C156.622 420.001 159.202 418.931 161.061 417.071C162.921 415.211 163.992 412.641 163.992 410.001C163.992 407.371 162.922 404.792 161.061 402.931Z" fill="black"/>
<circle cx="81" cy="134" r="71.5" stroke="black" stroke-width="19"/>
<path d="M75.66 162.853L116.843 114.517C119.719 111.655 119.719 107.014 116.843 104.147C113.968 101.284 109.305 101.284 106.429 104.147L70.4535 147.299L56.5706 133.477C53.6956 130.613 49.0327 130.613 46.157 133.477C44.7187 134.909 44 136.785 44 138.661C44 140.538 44.7195 142.414 46.157 143.846L65.2463 162.853C68.1213 165.716 72.7835 165.716 75.66 162.853Z" fill="black"/>
</g>
<defs>
<clipPath id="clip0">
<rect width="512.001" height="512.001" fill="white"/>
</clipPath>
</defs>
</svg>
