<svg xmlns="http://www.w3.org/2000/svg" viewBox="0 0 246 126" width="246" height="126">
	<defs>
		<clipPath clipPathUnits="userSpaceOnUse" id="cp1">
			<path d="M-1659 -97L261 -97L261 1655L-1659 1655Z" />
		</clipPath>
	</defs>
	<style>
		tspan { white-space:pre }
		.shp0 { opacity: 0.4;fill: #373657 } 
	</style>
	<g id="25.05_Vidget" clip-path="url(#cp1)">
		<g id="1_Blok">
			<g id="BG">
				<g id="22">
					<path id="Прямоугольник 1" class="shp0" d="M108.31 1.07C136.75 1.07 159.8 22.81 159.8 49.63C159.8 76.44 136.75 98.18 108.31 98.18C79.87 98.18 56.81 76.44 56.81 49.63C56.81 22.81 79.87 1.07 108.31 1.07ZM47.04 37.18C72.38 37.18 92.93 56.81 92.93 81.03C92.93 105.24 72.38 124.87 47.04 124.87C21.7 124.87 1.16 105.24 1.16 81.03C1.16 56.81 21.7 37.18 47.04 37.18ZM171.64 33.05C194.84 33.05 213.65 51.49 213.65 74.22C213.65 96.96 194.84 115.39 171.64 115.39C148.43 115.39 129.62 96.96 129.62 74.22C129.62 51.49 148.43 33.05 171.64 33.05ZM212.75 63.24C230.56 63.24 245 77.03 245 94.05C245 111.07 230.56 124.87 212.75 124.87C194.94 124.87 180.51 111.07 180.51 94.05C180.51 77.03 194.94 63.24 212.75 63.24ZM42.57 91.72L213.65 91.72L213.65 124.87L42.57 124.87L42.57 91.72Z" />
				</g>
			</g>
		</g>
	</g>
</svg>