<svg xmlns="http://www.w3.org/2000/svg" viewBox="0 0 423 214" width="423" height="214">
	<defs>
		<clipPath clipPathUnits="userSpaceOnUse" id="cp1">
			<path d="M-1433 -301L487 -301L487 1451L-1433 1451Z" />
		</clipPath>
	</defs>
	<style>
		tspan { white-space:pre }
		.shp0 { fill: #373657 } 
		.shp1 { fill: #5d5e93 } 
		.shp2 { fill: #474873 } 
	</style>
	<g id="25.05_Vidget" clip-path="url(#cp1)">
		<g id="1_Blok">
			<g id="BG">
				<g id="22">
					<g id="01">
						<path id="Прямоугольник 1" class="shp0" d="M243.2 1C280.18 1 310.15 29.28 310.15 64.16C310.15 99.05 280.18 127.33 243.2 127.33C206.22 127.33 176.25 99.05 176.25 64.16C176.25 29.28 206.22 1 243.2 1ZM163.54 47.98C196.48 47.98 223.19 73.5 223.19 104.99C223.19 136.48 196.48 162 163.54 162C130.59 162 103.88 136.48 103.88 104.99C103.88 73.5 130.59 47.98 163.54 47.98ZM325.55 42.59C355.74 42.59 380.2 66.56 380.2 96.13C380.2 125.7 355.74 149.67 325.55 149.67C295.37 149.67 270.9 125.7 270.9 96.13C270.9 66.56 295.37 42.59 325.55 42.59ZM379.05 81.89C402.22 81.89 421 99.82 421 121.94C421 144.07 402.22 162 379.05 162C355.88 162 337.09 144.07 337.09 121.94C337.09 99.82 355.88 81.89 379.05 81.89ZM157.77 118.87L380.2 118.87L380.2 162L157.77 162L157.77 118.87Z" />
						<path id="Прямоугольник 1" class="shp1" d="M232.32 1C269.29 1 299.27 29.28 299.27 64.16C299.27 99.05 269.29 127.33 232.32 127.33C195.34 127.33 165.36 99.05 165.36 64.16C165.36 29.28 195.34 1 232.32 1ZM152.65 47.98C185.6 47.98 212.3 73.5 212.3 104.99C212.3 136.48 185.6 162 152.65 162C119.71 162 93 136.48 93 104.99C93 73.5 119.71 47.98 152.65 47.98ZM314.67 42.59C344.85 42.59 369.32 66.56 369.32 96.13C369.32 125.7 344.85 149.67 314.67 149.67C284.48 149.67 260.02 125.7 260.02 96.13C260.02 66.56 284.48 42.59 314.67 42.59ZM368.16 81.89C391.33 81.89 410.11 99.82 410.11 121.94C410.11 144.07 391.33 162 368.16 162C344.99 162 326.21 144.07 326.21 121.94C326.21 99.82 344.99 81.89 368.16 81.89ZM146.88 118.87L369.32 118.87L369.32 162L146.88 162L146.88 118.87Z" />
						<path id="Прямоугольник 1" class="shp2" d="M233.05 7.53C267.92 7.53 296.19 34.15 296.19 67C296.19 99.84 267.92 126.46 233.05 126.46C198.19 126.46 169.92 99.84 169.92 67C169.92 34.15 198.19 7.53 233.05 7.53ZM157.95 51.77C189.01 51.77 214.19 75.79 214.19 105.43C214.19 135.07 189.01 159.1 157.95 159.1C126.89 159.1 101.71 135.07 101.71 105.43C101.71 75.79 126.89 51.77 157.95 51.77ZM310.7 46.69C339.15 46.69 362.22 69.26 362.22 97.09C362.22 124.93 339.15 147.5 310.7 147.5C282.24 147.5 259.18 124.93 259.18 97.09C259.18 69.26 282.24 46.69 310.7 46.69ZM361.13 83.68C382.97 83.68 400.68 100.56 400.68 121.39C400.68 142.21 382.97 159.1 361.13 159.1C339.29 159.1 321.58 142.21 321.58 121.39C321.58 100.56 339.29 83.68 361.13 83.68ZM152.5 118.49L362.22 118.49L362.22 159.1L152.5 159.1L152.5 118.49Z" />
					</g>
					<g id="02">
						<path id="Эллипс 1" class="shp0" d="M69.16 96.94C85.95 96.94 99.55 109.77 99.55 125.6C99.55 141.43 85.95 154.26 69.16 154.26C52.38 154.26 38.78 141.43 38.78 125.6C38.78 109.77 52.38 96.94 69.16 96.94Z" />
						<path id="Эллипс 1 копия" class="shp0" d="M33.01 118.25C47.96 118.25 60.08 129.83 60.08 144.13C60.08 158.42 47.96 170 33.01 170C18.06 170 5.94 158.42 5.94 144.13C5.94 129.83 18.06 118.25 33.01 118.25Z" />
						<path id="Эллипс 1 копия 2" class="shp0" d="M106.54 115.81C120.24 115.81 131.34 126.69 131.34 140.1C131.34 153.52 120.24 164.4 106.54 164.4C92.84 164.4 81.74 153.52 81.74 140.1C81.74 126.69 92.84 115.81 106.54 115.81Z" />
						<path id="Эллипс 1 копия 3" class="shp0" d="M130.81 133.64C141.33 133.64 149.85 141.78 149.85 151.82C149.85 161.86 141.33 170 130.81 170C120.3 170 111.77 161.86 111.77 151.82C111.77 141.78 120.3 133.64 130.81 133.64Z" />
						<path id="Прямоугольник 1" class="shp0" d="M30.38 150.43L131.34 150.43L131.34 170L30.38 170L30.38 150.43Z" />
						<path id="Прямоугольник 1" class="shp1" d="M64.23 96.94C81.01 96.94 94.61 109.77 94.61 125.6C94.61 141.43 81.01 154.26 64.23 154.26C47.45 154.26 33.84 141.43 33.84 125.6C33.84 109.77 47.45 96.94 64.23 96.94ZM28.07 118.25C43.02 118.25 55.15 129.83 55.15 144.13C55.15 158.42 43.02 170 28.07 170C13.12 170 1 158.42 1 144.13C1 129.83 13.12 118.25 28.07 118.25ZM101.6 115.81C115.29 115.81 126.39 126.69 126.39 140.1C126.39 153.52 115.29 164.4 101.6 164.4C87.9 164.4 76.8 153.52 76.8 140.1C76.8 126.69 87.9 115.81 101.6 115.81ZM125.88 133.64C136.39 133.64 144.92 141.78 144.92 151.82C144.92 161.86 136.39 170 125.88 170C115.36 170 106.84 161.86 106.84 151.82C106.84 141.78 115.36 133.64 125.88 133.64ZM25.45 150.43L126.39 150.43L126.39 170L25.45 170L25.45 150.43Z" />
						<path id="Прямоугольник 1" class="shp2" d="M64.56 99.9C80.38 99.9 93.21 111.98 93.21 126.89C93.21 141.79 80.38 153.88 64.56 153.88C48.73 153.88 35.9 141.79 35.9 126.89C35.9 111.98 48.73 99.9 64.56 99.9ZM30.48 119.98C44.57 119.98 56 130.88 56 144.33C56 157.78 44.57 168.68 30.48 168.68C16.38 168.68 4.96 157.78 4.96 144.33C4.96 130.88 16.38 119.98 30.48 119.98ZM99.8 117.67C112.71 117.67 123.18 127.91 123.18 140.54C123.18 153.18 112.71 163.42 99.8 163.42C86.89 163.42 76.42 153.18 76.42 140.54C76.42 127.91 86.89 117.67 99.8 117.67ZM122.69 134.46C132.6 134.46 140.63 142.12 140.63 151.57C140.63 161.02 132.6 168.68 122.69 168.68C112.77 168.68 104.74 161.02 104.74 151.57C104.74 142.12 112.77 134.46 122.69 134.46ZM28 150.26L123.18 150.26L123.18 168.68L28 168.68L28 150.26Z" />
					</g>
					<path id="Прямоугольник 1" class="shp0" d="M181.64 128.6C200.64 128.6 216.05 143.14 216.05 161.08C216.05 179.02 200.64 193.56 181.64 193.56C162.64 193.56 147.23 179.02 147.23 161.08C147.23 143.14 162.64 128.6 181.64 128.6ZM140.69 152.8C157.64 152.8 171.38 165.91 171.38 182.1C171.38 198.28 157.64 211.4 140.69 211.4C123.74 211.4 110 198.28 110 182.1C110 165.91 123.74 152.8 140.69 152.8ZM223.98 150.02C239.48 150.02 252.05 162.35 252.05 177.55C252.05 192.76 239.48 205.09 223.98 205.09C208.47 205.09 195.9 192.76 195.9 177.55C195.9 162.35 208.47 150.02 223.98 150.02ZM251.44 171.21C263.35 171.21 273 180.43 273 191.8C273 203.18 263.35 212.4 251.44 212.4C239.54 212.4 229.88 203.18 229.88 191.8C229.88 180.43 239.54 171.21 251.44 171.21ZM137.68 190.23L252.05 190.23L252.05 212.4L137.68 212.4L137.68 190.23Z" />
				</g>
			</g>
		</g>
	</g>
</svg>