<svg xmlns="http://www.w3.org/2000/svg" viewBox="0 0 512 252" width="512" height="252">
	<defs>
		<clipPath clipPathUnits="userSpaceOnUse" id="cp1">
			<path d="M-22 -157L1898 -157L1898 1595L-22 1595Z" />
		</clipPath>
	</defs>
	<style>
		tspan { white-space:pre }
		.shp0 { fill: #373657 }
	</style>
	<g id="25.05_widget" clip-path="url(#cp1)">
		<g id="1_Blok">
			<g id="BG">
				<g id="11">
					<g id="01">
						<path id="Прямоугольник 1" class="shp0" d="M234.51 0.77C292.12 0.77 338.82 44.82 338.82 99.16C338.82 153.51 292.12 197.56 234.51 197.56C176.9 197.56 130.2 153.51 130.2 99.16C130.2 44.82 176.9 0.77 234.51 0.77ZM110.37 73.93C161.7 73.93 203.31 113.7 203.31 162.76C203.31 211.82 161.7 251.59 110.37 251.59C59.04 251.59 17.43 211.82 17.43 162.76C17.43 113.7 59.04 73.93 110.37 73.93ZM362.81 65.57C409.85 65.57 447.97 102.91 447.97 148.97C447.97 195.03 409.85 232.37 362.81 232.37C315.78 232.37 277.66 195.03 277.66 148.97C277.66 102.91 315.78 65.57 362.81 65.57ZM446.14 126.76C482.24 126.76 511.5 154.7 511.5 189.18C511.5 223.65 482.24 251.59 446.14 251.59C410.05 251.59 380.79 223.65 380.79 189.18C380.79 154.7 410.05 126.76 446.14 126.76ZM101.36 184.41L447.97 184.41L447.97 251.59L101.36 251.59L101.36 184.41ZM217.55 0.77C275.16 0.77 321.86 44.82 321.86 99.16C321.86 153.51 275.16 197.56 217.55 197.56C159.94 197.56 113.24 153.51 113.24 99.16C113.24 44.82 159.94 0.77 217.55 0.77ZM93.44 73.93C144.77 73.93 186.38 113.7 186.38 162.76C186.38 211.82 144.77 251.59 93.44 251.59C42.11 251.59 0.5 211.82 0.5 162.76C0.5 113.7 42.11 73.93 93.44 73.93ZM345.85 65.57C392.86 65.57 430.97 102.91 430.97 148.97C430.97 195.03 392.86 232.37 345.85 232.37C298.83 232.37 260.72 195.03 260.72 148.97C260.72 102.91 298.83 65.57 345.85 65.57ZM429.2 126.76C465.3 126.76 494.57 154.7 494.57 189.18C494.57 223.65 465.3 251.59 429.2 251.59C393.1 251.59 363.83 223.65 363.83 189.18C363.83 154.7 393.1 126.76 429.2 126.76ZM84.43 184.41L430.97 184.41L430.97 251.59L84.43 251.59L84.43 184.41ZM218.67 10.95C273 10.95 317.05 52.43 317.05 103.59C317.05 154.76 273 196.24 218.67 196.24C164.35 196.24 120.3 154.76 120.3 103.59C120.3 52.43 164.35 10.95 218.67 10.95ZM101.68 79.88C150.06 79.88 189.28 117.31 189.28 163.47C189.28 209.64 150.06 247.06 101.68 247.06C53.3 247.06 14.08 209.64 14.08 163.47C14.08 117.31 53.3 79.88 101.68 79.88ZM339.66 71.95C383.98 71.95 419.92 107.1 419.92 150.47C419.92 193.84 383.98 228.99 339.66 228.99C295.33 228.99 259.4 193.84 259.4 150.47C259.4 107.1 295.33 71.95 339.66 71.95ZM418.24 129.59C452.27 129.59 479.85 155.89 479.85 188.33C479.85 220.76 452.27 247.06 418.24 247.06C384.21 247.06 356.63 220.76 356.63 188.33C356.63 155.89 384.21 129.59 418.24 129.59ZM93.19 183.82L419.92 183.82L419.92 247.06L93.19 247.06L93.19 183.82Z" />
					</g>
				</g>
			</g>
		</g>
	</g>
</svg>
