<svg xmlns="http://www.w3.org/2000/svg" viewBox="0 0 359 193" width="359" height="193">
	<defs>
		<clipPath clipPathUnits="userSpaceOnUse" id="cp1">
			<path d="M-1528 -309L392 -309L392 1443L-1528 1443Z" />
		</clipPath>
	</defs>
	<style>
		tspan { white-space:pre }
		.shp0 { opacity: 0.502;fill: #373657 } 
	</style>
	<g id="25.05_Vidget" clip-path="url(#cp1)">
		<g id="1_Blok">
			<g id="BG">
				<g id="22">
					<path id="Прямоугольник 1" class="shp0" d="M47.72 0.92C60.34 0.92 70.58 10.57 70.58 22.47C70.58 34.38 60.34 44.03 47.72 44.03C35.09 44.03 24.86 34.38 24.86 22.47C24.86 10.57 35.09 0.92 47.72 0.92ZM20.53 16.95C31.77 16.95 40.89 25.67 40.89 36.41C40.89 47.16 31.77 55.87 20.53 55.87C9.28 55.87 0.16 47.16 0.16 36.41C0.16 25.67 9.28 16.95 20.53 16.95ZM75.83 15.12C86.13 15.12 94.48 23.3 94.48 33.4C94.48 43.49 86.13 51.67 75.83 51.67C65.53 51.67 57.18 43.49 57.18 33.4C57.18 23.3 65.53 15.12 75.83 15.12ZM94.07 28.52C101.98 28.52 108.39 34.65 108.39 42.2C108.39 49.75 101.98 55.87 94.07 55.87C86.17 55.87 79.76 49.75 79.76 42.2C79.76 34.65 86.17 28.52 94.07 28.52ZM18.53 41.16L94.48 41.16L94.48 55.87L18.53 55.87L18.53 41.16ZM267.64 108.6C286.64 108.6 302.05 123.14 302.05 141.08C302.05 159.02 286.64 173.56 267.64 173.56C248.64 173.56 233.23 159.02 233.23 141.08C233.23 123.14 248.64 108.6 267.64 108.6ZM226.69 132.8C243.64 132.8 257.38 145.91 257.38 162.1C257.38 178.28 243.64 191.4 226.69 191.4C209.74 191.4 196 178.28 196 162.1C196 145.91 209.74 132.8 226.69 132.8ZM309.98 130.02C325.48 130.02 338.05 142.35 338.05 157.55C338.05 172.76 325.48 185.09 309.98 185.09C294.47 185.09 281.9 172.76 281.9 157.55C281.9 142.35 294.47 130.02 309.98 130.02ZM337.44 151.21C349.35 151.21 359 160.43 359 171.8C359 183.18 349.35 192.4 337.44 192.4C325.54 192.4 315.88 183.18 315.88 171.8C315.88 160.43 325.54 151.21 337.44 151.21ZM223.68 170.23L338.05 170.23L338.05 192.4L223.68 192.4L223.68 170.23Z" />
				</g>
			</g>
		</g>
	</g>
</svg>