<svg xmlns="http://www.w3.org/2000/svg" viewBox="0 0 249 194" width="249" height="194">
	<defs>
		<clipPath clipPathUnits="userSpaceOnUse" id="cp1">
			<path d="M-1610 -1373L310 -1373L310 379L-1610 379Z" />
		</clipPath>
	</defs>
	<style>
		tspan { white-space:pre }
		.shp0 { opacity: 0.502;fill: #373657 }
	</style>
	<g id="25.05_widget" clip-path="url(#cp1)">
		<g id="1_Blok">
			<g id="BG">
				<g id="33">
					<path id="Прямоугольник 1" class="shp0" d="M34.84 0.94C43.82 0.94 51.1 7.81 51.1 16.29C51.1 24.76 43.82 31.63 34.84 31.63C25.86 31.63 18.59 24.76 18.59 16.29C18.59 7.81 25.86 0.94 34.84 0.94ZM15.5 12.37C23.5 12.37 29.99 18.57 29.99 26.21C29.99 33.86 23.5 40.06 15.5 40.06C7.49 40.06 1 33.86 1 26.21C1 18.57 7.49 12.37 15.5 12.37ZM54.84 11.06C62.17 11.06 68.11 16.88 68.11 24.07C68.11 31.25 62.17 37.08 54.84 37.08C47.52 37.08 41.58 31.25 41.58 24.07C41.58 16.88 47.52 11.06 54.84 11.06ZM67.82 20.6C73.44 20.6 78 24.96 78 30.33C78 35.7 73.44 40.06 67.82 40.06C62.19 40.06 57.63 35.7 57.63 30.33C57.63 24.96 62.19 20.6 67.82 20.6ZM14.07 29.58L68.11 29.58L68.11 40.06L14.07 40.06L14.07 29.58ZM157.64 109.6C176.64 109.6 192.05 124.14 192.05 142.08C192.05 160.02 176.64 174.56 157.64 174.56C138.64 174.56 123.23 160.02 123.23 142.08C123.23 124.14 138.64 109.6 157.64 109.6ZM116.69 133.8C133.64 133.8 147.38 146.91 147.38 163.1C147.38 179.28 133.64 192.4 116.69 192.4C99.74 192.4 86 179.28 86 163.1C86 146.91 99.74 133.8 116.69 133.8ZM199.98 131.02C215.48 131.02 228.05 143.35 228.05 158.55C228.05 173.76 215.48 186.09 199.98 186.09C184.47 186.09 171.9 173.76 171.9 158.55C171.9 143.35 184.47 131.02 199.98 131.02ZM227.44 152.21C239.35 152.21 249 161.43 249 172.8C249 184.18 239.35 193.4 227.44 193.4C215.54 193.4 205.88 184.18 205.88 172.8C205.88 161.43 215.54 152.21 227.44 152.21ZM113.68 171.23L228.05 171.23L228.05 193.4L113.68 193.4L113.68 171.23Z" />
				</g>
			</g>
		</g>
	</g>
</svg>
