<svg xmlns="http://www.w3.org/2000/svg" viewBox="0 0 160 80" width="160" height="80">
	<defs>
		<clipPath clipPathUnits="userSpaceOnUse" id="cp1">
			<path d="M-231 -445L1689 -445L1689 1307L-231 1307Z" />
		</clipPath>
	</defs>
	<style>
		tspan { white-space:pre }
		.shp0 { fill: #373657 }
	</style>
	<g id="25.05_widget" clip-path="url(#cp1)">
		<g id="1_Blok">
			<g id="BG">
				<g id="11">
					<g id="02">
						<path id="Прямоугольник 1" class="shp0" d="M73.83 0.97C91.76 0.97 106.3 14.67 106.3 31.59C106.3 48.5 91.76 62.21 73.83 62.21C55.9 62.21 41.36 48.5 41.36 31.59C41.36 14.67 55.9 0.97 73.83 0.97ZM35.2 23.74C51.17 23.74 64.11 36.12 64.11 51.39C64.11 66.66 51.17 79.03 35.2 79.03C19.23 79.03 6.29 66.66 6.29 51.39C6.29 36.12 19.23 23.74 35.2 23.74ZM113.75 21.13C128.38 21.13 140.23 32.75 140.23 47.08C140.23 61.41 128.38 73.03 113.75 73.03C99.13 73.03 87.27 61.41 87.27 47.08C87.27 32.75 99.13 21.13 113.75 21.13ZM139.67 40.16C150.9 40.16 160 48.86 160 59.6C160 70.33 150.9 79.03 139.67 79.03C128.45 79.03 119.35 70.33 119.35 59.6C119.35 48.86 128.45 40.16 139.67 40.16ZM32.38 58.13L140.23 58.13L140.23 79.03L32.38 79.03L32.38 58.13ZM68.54 0.97C86.47 0.97 101.01 14.67 101.01 31.59C101.01 48.5 86.47 62.21 68.54 62.21C50.61 62.21 36.07 48.5 36.07 31.59C36.07 14.67 50.61 0.97 68.54 0.97ZM29.92 23.74C45.9 23.74 58.85 36.12 58.85 51.39C58.85 66.66 45.9 79.03 29.92 79.03C13.95 79.03 1 66.66 1 51.39C1 36.12 13.95 23.74 29.92 23.74ZM108.48 21.13C123.11 21.13 134.97 32.75 134.97 47.08C134.97 61.41 123.11 73.03 108.48 73.03C93.85 73.03 81.98 61.41 81.98 47.08C81.98 32.75 93.85 21.13 108.48 21.13ZM134.39 40.16C145.61 40.16 154.71 48.86 154.71 59.6C154.71 70.33 145.61 79.03 134.39 79.03C123.16 79.03 114.06 70.33 114.06 59.6C114.06 48.86 123.16 40.16 134.39 40.16ZM27.12 58.13L134.97 58.13L134.97 79.03L27.12 79.03L27.12 58.13ZM68.89 4.13C85.8 4.13 99.5 17.04 99.5 32.97C99.5 48.9 85.8 61.81 68.89 61.81C51.99 61.81 38.29 48.9 38.29 32.97C38.29 17.04 51.99 4.13 68.89 4.13ZM32.49 25.57C47.54 25.57 59.75 37.22 59.75 51.59C59.75 65.96 47.54 77.6 32.49 77.6C17.43 77.6 5.23 65.96 5.23 51.59C5.23 37.22 17.43 25.57 32.49 25.57ZM106.55 23.11C120.35 23.11 131.54 34.05 131.54 47.55C131.54 61.04 120.35 71.99 106.55 71.99C92.75 71.99 81.56 61.04 81.56 47.55C81.56 34.05 92.75 23.11 106.55 23.11ZM130.98 41.06C141.56 41.06 150.14 49.24 150.14 59.33C150.14 69.42 141.56 77.6 130.98 77.6C120.4 77.6 111.82 69.42 111.82 59.33C111.82 49.24 120.4 41.06 130.98 41.06ZM29.83 57.91L131.54 57.91L131.54 77.6L29.83 77.6L29.83 57.91Z" />
					</g>
				</g>
			</g>
		</g>
	</g>
</svg>
