<svg xmlns="http://www.w3.org/2000/svg" viewBox="0 0 151 76" width="151" height="76">
	<defs>
		<clipPath clipPathUnits="userSpaceOnUse" id="cp1">
			<path d="M-1614 -384L306 -384L306 1368L-1614 1368Z" />
		</clipPath>
	</defs>
	<style>
		tspan { white-space:pre }
		.shp0 { fill: #373657 } 
		.shp1 { fill: #5d5e93 } 
		.shp2 { fill: #474873 } 
	</style>
	<g id="25.05_Vidget" clip-path="url(#cp1)">
		<g id="1_Blok">
			<g id="BG">
				<g id="22">
					<g id="02">
						<path id="Эллипс 1" class="shp0" d="M69.16 1.94C85.95 1.94 99.55 14.77 99.55 30.6C99.55 46.43 85.95 59.26 69.16 59.26C52.38 59.26 38.78 46.43 38.78 30.6C38.78 14.77 52.38 1.94 69.16 1.94Z" />
						<path id="Эллипс 1 копия" class="shp0" d="M33.01 23.25C47.96 23.25 60.08 34.84 60.08 49.13C60.08 63.42 47.96 75 33.01 75C18.06 75 5.94 63.42 5.94 49.13C5.94 34.84 18.06 23.25 33.01 23.25Z" />
						<path id="Эллипс 1 копия 2" class="shp0" d="M106.54 20.81C120.24 20.81 131.34 31.69 131.34 45.1C131.34 58.52 120.24 69.4 106.54 69.4C92.84 69.4 81.74 58.52 81.74 45.1C81.74 31.69 92.84 20.81 106.54 20.81Z" />
						<path id="Эллипс 1 копия 3" class="shp0" d="M130.81 38.64C141.33 38.64 149.85 46.78 149.85 56.82C149.85 66.86 141.33 75 130.81 75C120.3 75 111.77 66.86 111.77 56.82C111.77 46.78 120.3 38.64 130.81 38.64Z" />
						<path id="Прямоугольник 1" class="shp0" d="M30.38 55.43L131.34 55.43L131.34 75L30.38 75L30.38 55.43Z" />
						<path id="Прямоугольник 1" class="shp1" d="M64.23 1.94C81.01 1.94 94.61 14.77 94.61 30.6C94.61 46.43 81.01 59.26 64.23 59.26C47.45 59.26 33.84 46.43 33.84 30.6C33.84 14.77 47.45 1.94 64.23 1.94ZM28.07 23.25C43.02 23.25 55.15 34.84 55.15 49.13C55.15 63.42 43.02 75 28.07 75C13.12 75 1 63.42 1 49.13C1 34.84 13.12 23.25 28.07 23.25ZM101.6 20.81C115.29 20.81 126.4 31.69 126.4 45.1C126.4 58.52 115.29 69.4 101.6 69.4C87.9 69.4 76.8 58.52 76.8 45.1C76.8 31.69 87.9 20.81 101.6 20.81ZM125.88 38.64C136.39 38.64 144.92 46.78 144.92 56.82C144.92 66.86 136.39 75 125.88 75C115.36 75 106.84 66.86 106.84 56.82C106.84 46.78 115.36 38.64 125.88 38.64ZM25.45 55.43L126.4 55.43L126.4 75L25.45 75L25.45 55.43Z" />
						<path id="Прямоугольник 1" class="shp2" d="M64.56 4.9C80.38 4.9 93.21 16.98 93.21 31.89C93.21 46.79 80.38 58.88 64.56 58.88C48.73 58.88 35.9 46.79 35.9 31.89C35.9 16.98 48.73 4.9 64.56 4.9ZM30.48 24.98C44.57 24.98 56 35.88 56 49.33C56 62.78 44.57 73.68 30.48 73.68C16.38 73.68 4.96 62.78 4.96 49.33C4.96 35.88 16.38 24.98 30.48 24.98ZM99.8 22.67C112.71 22.67 123.18 32.91 123.18 45.54C123.18 58.18 112.71 68.42 99.8 68.42C86.89 68.42 76.42 58.18 76.42 45.54C76.42 32.91 86.89 22.67 99.8 22.67ZM122.69 39.46C132.6 39.46 140.63 47.12 140.63 56.57C140.63 66.02 132.6 73.68 122.69 73.68C112.77 73.68 104.74 66.02 104.74 56.57C104.74 47.12 112.77 39.46 122.69 39.46ZM28 55.26L123.18 55.26L123.18 73.68L28 73.68L28 55.26Z" />
					</g>
				</g>
			</g>
		</g>
	</g>
</svg>