<svg width="80" height="80" viewBox="0 0 80 80" fill="none" xmlns="http://www.w3.org/2000/svg">
<path d="M77.6923 37.6923H71.5405C70.41 22.0897 57.9103 9.59 42.3077 8.45949V2.30769C42.3077 1.03308 41.2746 0 40 0C38.7254 0 37.6923 1.03308 37.6923 2.30769V8.45949C22.0897 9.59 9.59 22.0897 8.45949 37.6923H2.30769C1.03308 37.6923 0 38.7254 0 40C0 41.2746 1.03308 42.3077 2.30769 42.3077H8.45949C9.59 57.9103 22.0897 70.41 37.6923 71.5405V77.6923C37.6923 78.9669 38.7254 80 40 80C41.2746 80 42.3077 78.9669 42.3077 77.6923V71.5405C57.9103 70.4097 70.41 57.9103 71.5405 42.3077H77.6923C78.9669 42.3077 80 41.2746 80 40C80 38.7254 78.9669 37.6923 77.6923 37.6923ZM42.3077 66.9103V60.9426C42.3077 59.668 41.2746 58.6349 40 58.6349C38.7254 58.6349 37.6923 59.668 37.6923 60.9426V66.9103C24.6362 65.8 14.2 55.3638 13.0897 42.3077H19.0574C20.3321 42.3077 21.3651 41.2746 21.3651 40C21.3651 38.7254 20.3321 37.6923 19.0574 37.6923H13.0897C14.2 24.6362 24.6362 14.2 37.6923 13.0897V19.0574C37.6923 20.3321 38.7254 21.3651 40 21.3651C41.2746 21.3651 42.3077 20.3321 42.3077 19.0574V13.0897C55.3638 14.1997 65.8 24.6362 66.9103 37.6923H60.9426C59.668 37.6923 58.6349 38.7254 58.6349 40C58.6349 41.2746 59.668 42.3077 60.9426 42.3077H66.9103C65.8 55.3638 55.3638 65.8 42.3077 66.9103Z" fill="black"/>
<path d="M40 27C32.8318 27 27 32.8317 27 39.9999C27 47.1682 32.8318 53 40 53C47.1682 53 53 47.1682 53 39.9999C53 32.8317 47.1683 27 40 27ZM47.4648 37.8041L39.2976 45.9713C38.9503 46.3186 38.4887 46.5097 37.9976 46.5097C37.5066 46.5097 37.0449 46.3186 36.6977 45.9713L32.5352 41.8088C32.1879 41.4616 31.9966 41 31.9966 40.5089C31.9966 40.0177 32.1879 39.5561 32.5352 39.2088C32.8823 38.8615 33.3439 38.6703 33.8351 38.6703C34.3262 38.6703 34.788 38.8615 35.1351 39.2089L37.9975 42.0712L44.8646 35.2041C45.2119 34.8568 45.6735 34.6657 46.1646 34.6657C46.6557 34.6657 47.1173 34.8568 47.4646 35.2041C48.1816 35.9211 48.1816 37.0873 47.4648 37.8041Z" fill="black"/>
</svg>
