<?xml version="1.0" encoding="utf-8"?><!DOCTYPE svg PUBLIC "-//W3C//DTD SVG 1.1//EN" "http://www.w3.org/Graphics/SVG/1.1/DTD/svg11.dtd"><svg xmlns="http://www.w3.org/2000/svg" xmlns:xlink="http://www.w3.org/1999/xlink"><symbol viewBox="0 0 512 512" id="basket" xmlns="http://www.w3.org/2000/svg"><path d="M158.136 186.75c11.667 11.667 30.759 11.667 42.426 0 11.667-11.667 11.667-30.759 0-42.426L98.739 42.501c-11.667-11.667-30.759-11.667-42.426 0-11.667 11.667-11.667 30.759 0 42.426z"/><path d="M497 177.999h-91.958l-29.965 29.964c-11.31 11.309-26.377 17.537-42.426 17.537-16.05 0-31.117-6.228-42.427-17.537-8.515-8.515-13.915-18.977-16.231-29.964h-35.976c-2.363 11.285-7.921 21.644-16.242 29.964-11.309 11.309-26.376 17.537-42.426 17.537s-31.117-6.228-42.426-17.537l-29.964-29.964H15c-8.284 0-15 6.716-15 15V236c0 8.284 6.716 15 15 15h482c8.284 0 15-6.716 15-15v-43.001c0-8.284-6.716-15-15-15z"/><path d="M311.438 186.75c11.667 11.667 30.759 11.667 42.426 0L455.687 84.927c11.667-11.667 11.667-30.759 0-42.426-11.667-11.667-30.759-11.667-42.426 0L311.437 144.324c-11.667 11.667-11.667 30.759.001 42.426zM80.053 445.171c5.739 19.785 24.174 33.079 45.875 33.079h260.077c21.721 0 40.16-13.309 45.886-33.116A261387.49 261387.49 0 0 1 479.403 281H32.498c15.115 52.326 47.555 164.171 47.555 164.171zm244.805-26.074l14.633-100.969c1.188-8.198 8.798-13.883 16.996-12.693 8.198 1.188 13.882 8.798 12.693 16.996L354.547 423.4c-1.082 7.469-7.494 12.851-14.826 12.851-.716 0-1.44-.051-2.17-.157-8.197-1.189-13.881-8.799-12.693-16.997zm-83.952-98.818c0-8.284 6.716-15 15-15 8.285 0 15 6.716 15 15v100.969c0 8.284-6.716 15-15 15s-15-6.716-15-15zm-85.582-14.844c8.202-1.188 15.808 4.496 16.996 12.693l14.633 100.969c1.188 8.198-4.495 15.808-12.693 16.996-.729.106-1.455.157-2.17.157-7.332 0-13.743-5.381-14.826-12.851L142.631 322.43c-1.189-8.198 4.494-15.808 12.693-16.995z"/></symbol><symbol viewBox="0 0 512 512" id="browser" xmlns="http://www.w3.org/2000/svg"><path d="M477.083 440.502c19.253 0 34.917-15.664 34.917-34.918V50c0-27.57-22.43-50-50-50H50C22.43 0 0 22.43 0 50v355.584c0 19.254 15.664 34.918 34.917 34.918H46V492H10c-5.523 0-10 4.478-10 10s4.477 10 10 10h492c5.523 0 10-4.478 10-10s-4.477-10-10-10h-36v-51.498h11.083zM20 50c0-16.542 13.458-30 30-30h412c16.542 0 30 13.458 30 30v22H21.004c-.339 0-.674.018-1.004.051V50zm90 442H66v-90h44v90zm112 0h-44V291.432h44V492zm112 0h-44V376h44v116zm122-235.5h-64c-5.523 0-10 4.478-10 10v50.499c0 5.522 4.477 10 10 10s10-4.478 10-10V276.5h44V492h-44V384.25c0-5.522-4.477-10-10-10s-10 4.478-10 10V492h-28V366c0-5.522-4.477-10-10-10h-64c-5.523 0-10 4.478-10 10v126h-28V281.432c0-5.522-4.477-10-10-10h-64c-5.523 0-10 4.478-10 10V492h-28V392c0-5.522-4.477-10-10-10H56c-5.523 0-10 4.478-10 10v28.502H34.917c-8.226 0-14.917-6.692-14.917-14.918V91.949c.33.033.665.051 1.004.051H492v313.584c0 8.226-6.692 14.918-14.917 14.918H466V266.5c0-5.522-4.477-10-10-10z"/><path d="M448 36H222.065c-5.523 0-10 4.478-10 10s4.477 10 10 10H448c5.523 0 10-4.478 10-10s-4.477-10-10-10zM111.07 38.93C109.21 37.07 106.63 36 104 36s-5.21 1.069-7.07 2.93C95.07 40.79 94 43.37 94 46s1.07 5.21 2.93 7.069C98.79 54.93 101.37 56 104 56s5.21-1.07 7.07-2.931C112.93 51.21 114 48.63 114 46s-1.07-5.21-2.93-7.07zM71.07 38.93C69.21 37.07 66.63 36 64 36s-5.21 1.069-7.07 2.93C55.07 40.79 54 43.37 54 46s1.07 5.21 2.93 7.069C58.79 54.93 61.37 56 64 56s5.21-1.07 7.07-2.931C72.93 51.21 74 48.63 74 46s-1.07-5.21-2.93-7.07zM151.07 38.93A10.058 10.058 0 0 0 144 36c-2.63 0-5.21 1.069-7.07 2.93-1.86 1.86-2.93 4.44-2.93 7.07s1.07 5.21 2.93 7.069C138.79 54.93 141.37 56 144 56s5.21-1.07 7.07-2.931C152.93 51.21 154 48.63 154 46s-1.07-5.21-2.93-7.07zM399.07 345.57c-1.86-1.87-4.44-2.93-7.07-2.93s-5.21 1.061-7.07 2.93c-1.86 1.86-2.93 4.44-2.93 7.07s1.07 5.21 2.93 7.07c1.86 1.859 4.44 2.93 7.07 2.93s5.21-1.07 7.07-2.93 2.93-4.44 2.93-7.07c0-2.64-1.07-5.21-2.93-7.07zM424 135.939c-19.851 0-36 16.149-36 36a35.798 35.798 0 0 0 6.871 21.118l-66.425 66.425a35.774 35.774 0 0 0-17.375-4.483 35.775 35.775 0 0 0-15.824 3.674l-69.359-69.359a35.774 35.774 0 0 0 4.483-17.375c0-19.851-16.149-36-36-36s-36 16.149-36 36c0 6.938 1.978 13.42 5.392 18.922l-59.053 59.052a35.773 35.773 0 0 0-17.374-4.483c-19.851 0-36 16.149-36 36s16.149 36 36 36 36-16.149 36-36c0-6.298-1.63-12.22-4.483-17.375l59.758-59.758a35.782 35.782 0 0 0 15.76 3.641c6.297 0 12.219-1.63 17.374-4.483l68.68 68.679a35.78 35.78 0 0 0-5.354 18.863c0 19.851 16.149 36 36 36s36-16.149 36-36c0-6.298-1.63-12.22-4.483-17.375l68.205-68.205A35.765 35.765 0 0 0 424 207.939c19.851 0 36-16.149 36-36s-16.149-36-36-36zM87.337 297.432c-8.822 0-16-7.178-16-16s7.178-16 16-16 16 7.178 16 16-7.178 16-16 16zm107.035-109.493c-8.822 0-16-7.178-16-16s7.178-16 16-16 16 7.178 16 16-7.178 16-16 16zm116.7 119.06c-8.822 0-16-7.178-16-16s7.178-16 16-16 16 7.178 16 16-7.178 16-16 16zM424 187.939c-8.822 0-16-7.178-16-16s7.178-16 16-16 16 7.178 16 16-7.178 16-16 16zM148.33 128.951a10.094 10.094 0 0 0-7.07-2.931c-2.64 0-5.22 1.07-7.08 2.931-1.86 1.859-2.92 4.439-2.92 7.069s1.06 5.21 2.92 7.07a10.1 10.1 0 0 0 7.08 2.93c2.63 0 5.2-1.069 7.07-2.93 1.86-1.86 2.93-4.44 2.93-7.07s-1.07-5.21-2.93-7.069zM104 126.021H56c-5.523 0-10 4.478-10 10s4.477 10 10 10h48c5.523 0 10-4.478 10-10s-4.477-10-10-10zM104 174.021H56c-5.523 0-10 4.478-10 10s4.477 10 10 10h48c5.523 0 10-4.478 10-10s-4.477-10-10-10z"/></symbol><symbol viewBox="0 0 512 512" id="calc" xmlns="http://www.w3.org/2000/svg"><path d="M295 127.99H166.894c-5.522 0-10 4.477-10 10s4.477 10 10 10H295c5.522 0 10-4.477 10-10s-4.478-10-10-10zM86.61 130.917a10.035 10.035 0 0 0-7.06-2.93c-2.64 0-5.22 1.07-7.08 2.93a10.093 10.093 0 0 0-2.93 7.07c0 2.64 1.069 5.21 2.93 7.07 1.86 1.87 4.44 2.93 7.08 2.93 2.63 0 5.21-1.06 7.06-2.93 1.87-1.85 2.931-4.43 2.931-7.07 0-2.63-1.061-5.21-2.931-7.07zM57.019 130.917a10.072 10.072 0 0 0-7.069-2.93c-2.631 0-5.21 1.07-7.07 2.93-1.86 1.87-2.93 4.44-2.93 7.07s1.069 5.21 2.93 7.07a10.031 10.031 0 0 0 7.07 2.93c2.63 0 5.21-1.06 7.069-2.93a10.059 10.059 0 0 0 2.931-7.07c0-2.63-1.07-5.21-2.931-7.07zM116.21 130.917c-1.86-1.86-4.44-2.93-7.07-2.93s-5.21 1.07-7.07 2.93a10.08 10.08 0 0 0-2.93 7.07c0 2.64 1.07 5.21 2.93 7.07 1.86 1.87 4.44 2.93 7.07 2.93s5.21-1.06 7.07-2.93a10.062 10.062 0 0 0 2.93-7.07c0-2.63-1.07-5.2-2.93-7.07zM186.569 214.917c-1.859-1.86-4.439-2.93-7.069-2.93s-5.21 1.07-7.07 2.93-2.93 4.44-2.93 7.07c0 2.64 1.069 5.21 2.93 7.08 1.86 1.86 4.44 2.92 7.07 2.92s5.21-1.06 7.069-2.92c1.86-1.87 2.931-4.45 2.931-7.08s-1.07-5.2-2.931-7.07z"/><path d="M298 211.99h-84.001c-5.522 0-10 4.477-10 10s4.478 10 10 10H288v76H60v-76h82c5.522 0 10-4.477 10-10s-4.478-10-10-10H50c-5.522 0-10 4.477-10 10v96c0 5.523 4.478 10 10 10h248c5.522 0 10-4.477 10-10v-96c0-5.522-4.478-10-10-10zM459 36.01H330.894c-5.522 0-10 4.477-10 10s4.478 10 10 10H459c5.522 0 10-4.478 10-10 0-5.523-4.478-10-10-10zM250.609 38.937c-1.859-1.861-4.439-2.93-7.069-2.93s-5.2 1.07-7.07 2.93a10.066 10.066 0 0 0-2.92 7.07c0 2.64 1.06 5.21 2.92 7.07 1.86 1.87 4.44 2.93 7.07 2.93 2.64 0 5.21-1.06 7.069-2.93 1.87-1.86 2.94-4.44 2.94-7.07s-1.07-5.21-2.94-7.07zM221.019 38.937a10.067 10.067 0 0 0-7.069-2.93c-2.631 0-5.21 1.07-7.07 2.93s-2.93 4.44-2.93 7.07c0 2.64 1.069 5.21 2.93 7.07a10.031 10.031 0 0 0 7.07 2.93c2.63 0 5.21-1.06 7.069-2.93a10.059 10.059 0 0 0 2.931-7.07c0-2.63-1.07-5.21-2.931-7.07zM280.21 38.937c-1.86-1.861-4.44-2.93-7.07-2.93s-5.21 1.07-7.07 2.93a10.08 10.08 0 0 0-2.93 7.07 10.1 10.1 0 0 0 2.93 7.08c1.86 1.86 4.44 2.92 7.07 2.92s5.21-1.06 7.07-2.92c1.859-1.87 2.93-4.45 2.93-7.08s-1.07-5.2-2.93-7.07z"/><path d="M470 .01H206c-23.159 0-42 18.841-42 42v49.98H42c-23.159 0-42 18.841-42 42v336c0 23.159 18.841 42 42 42h264c23.159 0 42-18.841 42-42v-49.98h122c23.159 0 42-18.841 42-42v-336c0-23.159-18.841-42-42-42zM328 469.99c0 12.131-9.869 22-22 22H42c-12.131 0-22-9.869-22-22v-286h308v286zm0-306H20v-30c0-12.13 9.869-22 22-22h264c12.131 0 22 9.869 22 22v30zm164-91.98H351c-5.522 0-10 4.477-10 10s4.478 10 10 10h141v286c0 12.13-9.869 22-22 22H348v-164h114c5.522 0 10-4.477 10-10v-96c0-5.523-4.478-10-10-10H345.598c-5.774-16.305-21.34-28.02-39.598-28.02H184V42.01c0-12.131 9.869-22 22-22h264c12.131 0 22 9.869 22 22v30zm-141.905 144v-76H452v76H350.095z"/><path d="M98 355.99H50c-5.522 0-10 4.477-10 10v48c0 5.523 4.478 10 10 10h48c5.522 0 10-4.477 10-10v-48c0-5.522-4.478-10-10-10zm-10 48H60v-28h28v28zM198 355.99h-48c-5.522 0-10 4.477-10 10v48c0 5.523 4.478 10 10 10h48c5.522 0 10-4.477 10-10v-48c0-5.522-4.478-10-10-10zm-10 48h-28v-28h28v28zM298 355.99h-48c-5.522 0-10 4.477-10 10v48c0 5.523 4.478 10 10 10h48c5.522 0 10-4.477 10-10v-48c0-5.522-4.478-10-10-10zm-10 48h-28v-28h28v28zM98 443.987H50c-5.522 0-10 4.477-10 10s4.478 10 10 10h48c5.522 0 10-4.477 10-10s-4.478-10-10-10zM198 443.987h-48c-5.522 0-10 4.477-10 10s4.478 10 10 10h48c5.522 0 10-4.477 10-10s-4.478-10-10-10zM298 443.987h-48c-5.522 0-10 4.477-10 10s4.478 10 10 10h48c5.522 0 10-4.477 10-10s-4.478-10-10-10zM462 312.01h-78c-5.522 0-10 4.477-10 10s4.478 10 10 10h78c5.522 0 10-4.477 10-10s-4.478-10-10-10zM422.998 264.01H384c-5.522 0-10 4.477-10 10s4.478 10 10 10h38.998c5.522 0 10-4.477 10-10s-4.478-10-10-10zM469.069 266.937c-1.859-1.861-4.439-2.93-7.069-2.93s-5.21 1.07-7.07 2.93a10.076 10.076 0 0 0-2.93 7.07c0 2.64 1.069 5.22 2.93 7.07 1.86 1.87 4.44 2.93 7.07 2.93s5.21-1.06 7.069-2.93a10.059 10.059 0 0 0 2.931-7.07c0-2.63-1.07-5.21-2.931-7.07z"/></symbol><symbol viewBox="0 0 488.152 488.152" id="calendar" xmlns="http://www.w3.org/2000/svg"><path d="M177.854 269.311c0-6.115-4.96-11.069-11.08-11.069h-38.665c-6.113 0-11.074 4.954-11.074 11.069v38.66c0 6.123 4.961 11.079 11.074 11.079h38.665c6.12 0 11.08-4.956 11.08-11.079v-38.66zM274.483 269.311c0-6.115-4.961-11.069-11.069-11.069h-38.67c-6.113 0-11.074 4.954-11.074 11.069v38.66c0 6.123 4.961 11.079 11.074 11.079h38.67c6.108 0 11.069-4.956 11.069-11.079v-38.66zM371.117 269.311c0-6.115-4.961-11.069-11.074-11.069h-38.665c-6.12 0-11.08 4.954-11.08 11.069v38.66c0 6.123 4.96 11.079 11.08 11.079h38.665c6.113 0 11.074-4.956 11.074-11.079v-38.66zM177.854 365.95c0-6.125-4.96-11.075-11.08-11.075h-38.665c-6.113 0-11.074 4.95-11.074 11.075v38.653c0 6.119 4.961 11.074 11.074 11.074h38.665c6.12 0 11.08-4.956 11.08-11.074V365.95zM274.483 365.95c0-6.125-4.961-11.075-11.069-11.075h-38.67c-6.113 0-11.074 4.95-11.074 11.075v38.653c0 6.119 4.961 11.074 11.074 11.074h38.67c6.108 0 11.069-4.956 11.069-11.074V365.95zM371.117 365.95c0-6.125-4.961-11.075-11.069-11.075h-38.67c-6.12 0-11.08 4.95-11.08 11.075v38.653c0 6.119 4.96 11.074 11.08 11.074h38.67c6.108 0 11.069-4.956 11.069-11.074V365.95z"/><path d="M440.254 54.354v59.05c0 26.69-21.652 48.198-48.338 48.198h-30.493c-26.688 0-48.627-21.508-48.627-48.198V54.142h-137.44v59.262c0 26.69-21.938 48.198-48.622 48.198H96.235c-26.685 0-48.336-21.508-48.336-48.198v-59.05c-23.323.703-42.488 20.002-42.488 43.723v346.061c0 24.167 19.588 44.015 43.755 44.015h389.82c24.131 0 43.755-19.889 43.755-44.015V98.077c0-23.721-19.164-43.02-42.487-43.723zm-14.163 368.234c0 10.444-8.468 18.917-18.916 18.917H80.144c-10.448 0-18.916-8.473-18.916-18.917V243.835c0-10.448 8.467-18.921 18.916-18.921h327.03c10.448 0 18.916 8.473 18.916 18.921l.001 178.753z"/><path d="M96.128 129.945h30.162c9.155 0 16.578-7.412 16.578-16.567V16.573C142.868 7.417 135.445 0 126.29 0H96.128C86.972 0 79.55 7.417 79.55 16.573v96.805c0 9.155 7.422 16.567 16.578 16.567zM361.035 129.945h30.162c9.149 0 16.572-7.412 16.572-16.567V16.573C407.77 7.417 400.347 0 391.197 0h-30.162c-9.154 0-16.577 7.417-16.577 16.573v96.805c0 9.155 7.423 16.567 16.577 16.567z"/></symbol><symbol viewBox="0 0 92.595 92.595" id="coconut-tree" xmlns="http://www.w3.org/2000/svg"><path d="M84.634 34.228c-.698-23.037-26.337-13.136-26.337-13.136 8.113 0 17.682 8.5 17.682 8.5-23.667-4.637-27.705 6.956-27.705 6.956l10.023-2.32c6.882-1.556 10.875-.332 13.062 2.303-5.996 2.95-14.161 9.851-19.876 25.832-6.899-23.221-17.903-32.764-25.802-36.646 2.642-3.179 7.478-4.667 15.804-2.782l12.123 2.803s-4.887-14.021-33.513-8.41c0 0 11.579-10.285 21.39-10.285 0 0-31.014-11.975-31.86 15.892 0 0-21.657 24.295 0 33.656 0 0-4.682-19.979 6.149-25.242 0 0-.592 25.242 12.325 25.242.123.29-7.664-17.147-4.331-27.332 25.559 24.556 16.315 58.853 16.315 58.853h19.376s-7.638-28.359 13.49-48.658c2.752 8.42-3.683 22.841-3.583 22.595 10.684 0 10.191-20.867 10.191-20.867 8.956 4.351 5.078 20.867 5.078 20.867 17.91-7.736-.001-27.821-.001-27.821z"/></symbol><symbol viewBox="0 0 298.271 298.271" id="cubes" xmlns="http://www.w3.org/2000/svg"><path d="M236.951 229.005h-.98c-.047 0-.092-.012-.139-.012-.076.002-.15.012-.227.012h-20.333v16h21.68c4.121 0 7.604-3.664 7.604-8-.002-4.338-3.484-8-7.605-8zM236.252 206.927c0-4.295-3.482-7.922-7.604-7.922H215.27v14h18.104c1.369-1 2.878-3.223 2.878-6.078z"/><path d="M264.325 154.005h-51c18.901 0 33.946-15.641 33.946-34.541V42.022c0-18.902-15.045-34.018-33.946-34.018h-77.441c-18.901 0-34.612 15.115-34.612 34.018v77.441c0 7.018 2.289 13.547 5.922 18.986l-1.373-1.457c-6.454-6.453-15.021-10.008-24.198-10.008-9.178 0-17.765 3.555-24.219 10.008l-47.382 47.393c-13.365 13.365-13.36 35.113.005 48.479l47.395 47.394c6.454 6.453 15.064 10.008 24.241 10.008s17.786-3.555 24.24-10.008l47.228-47.394c4.905-4.904 8.14-10.939 9.14-17.275v39.875c0 18.9 15.711 34.541 34.612 34.541h67.441c18.901 0 33.946-15.641 33.946-34.541v-67.441c.001-18.903-15.044-34.018-33.945-34.018zM178.896 36.516c11.573 0 22.484 4.475 30.725 12.602a8 8 0 0 1-11.235 11.393c-5.227-5.154-12.149-7.994-19.49-7.994-15.305 0-27.756 12.451-27.756 27.756s12.451 27.756 27.756 27.756a27.738 27.738 0 0 0 21.079-9.699 7.999 7.999 0 0 1 11.28-.865 7.998 7.998 0 0 1 .866 11.279 43.714 43.714 0 0 1-33.226 15.285c-24.127 0-43.756-19.629-43.756-43.756.001-24.128 19.63-43.757 43.757-43.757zm-46.133 174.879a8 8 0 0 1-10.169 4.957l-11.795-4.063-25.332 25.332 3.96 12.039a8 8 0 0 1-7.601 10.502 8.004 8.004 0 0 1-7.599-5.502l-21.633-65.764a8.002 8.002 0 0 1 1.982-8.197 7.997 7.997 0 0 1 8.223-1.867l65.005 22.393a8 8 0 0 1 4.959 10.17zm29.508-23.373v13.641c-1-6.334-4.236-12.371-9.141-17.277l-36.316-36.268c5.439 3.633 12.052 5.887 19.07 5.887h61c-18.902 0-34.613 15.115-34.613 34.017zm74.68 72.983h-29.347c-4.418 0-8.333-3.844-8.333-8.262v-62c0-4.418 3.915-7.738 8.333-7.738h21.045c13.015 0 23.604 10.6 23.604 23.791 0 3.537-.79 6.894-2.262 10.017 6.362 4.303 10.564 11.759 10.564 20.095-.001 13.231-10.59 24.097-23.604 24.097z"/><path d="M79.866 220.594l14.102-14.101-21.136-7.281z"/></symbol><symbol viewBox="0 0 512.003 512.003" id="discount" xmlns="http://www.w3.org/2000/svg"><path d="M477.958 262.633a15.004 15.004 0 0 1 0-13.263l19.096-39.065c10.632-21.751 2.208-47.676-19.178-59.023l-38.41-20.38a15.005 15.005 0 0 1-7.796-10.729l-7.512-42.829c-4.183-23.846-26.241-39.87-50.208-36.479l-43.053 6.09a15.004 15.004 0 0 1-12.613-4.099l-31.251-30.232c-17.401-16.834-44.661-16.835-62.061 0L193.72 42.859a15.01 15.01 0 0 1-12.613 4.099l-43.053-6.09c-23.975-3.393-46.025 12.633-50.208 36.479l-7.512 42.827a15.008 15.008 0 0 1-7.795 10.73l-38.41 20.38c-21.386 11.346-29.81 37.273-19.178 59.024l19.095 39.064a15.004 15.004 0 0 1 0 13.263L14.95 301.699c-10.632 21.751-2.208 47.676 19.178 59.023l38.41 20.38a15.005 15.005 0 0 1 7.796 10.729l7.512 42.829c3.808 21.708 22.422 36.932 43.815 36.93 2.107 0 4.245-.148 6.394-.452l43.053-6.09a15 15 0 0 1 12.613 4.099l31.251 30.232c8.702 8.418 19.864 12.626 31.03 12.625 11.163-.001 22.332-4.209 31.03-12.625l31.252-30.232c3.372-3.261 7.968-4.751 12.613-4.099l43.053 6.09c23.978 3.392 46.025-12.633 50.208-36.479l7.513-42.827a15.008 15.008 0 0 1 7.795-10.73l38.41-20.38c21.386-11.346 29.81-37.273 19.178-59.024l-19.096-39.065zM196.941 123.116c29.852 0 54.139 24.287 54.139 54.139s-24.287 54.139-54.139 54.139-54.139-24.287-54.139-54.139 24.287-54.139 54.139-54.139zm-27.944 240.77c-2.883 2.883-6.662 4.325-10.44 4.325s-7.558-1.441-10.44-4.325c-5.766-5.766-5.766-15.115 0-20.881l194.889-194.889c5.765-5.766 15.115-5.766 20.881 0s5.766 15.115 0 20.881l-194.89 194.889zm146.064 25.002c-29.852 0-54.139-24.287-54.139-54.139s24.287-54.139 54.139-54.139c29.852 0 54.139 24.287 54.139 54.139s-24.287 54.139-54.139 54.139z"/><path d="M315.061 310.141c-13.569 0-24.609 11.039-24.609 24.608s11.039 24.608 24.609 24.608c13.569 0 24.608-11.039 24.608-24.608s-11.039-24.608-24.608-24.608zM196.941 152.646c-13.569 0-24.608 11.039-24.608 24.608s11.039 24.609 24.608 24.609 24.609-11.039 24.609-24.609c-.001-13.568-11.04-24.608-24.609-24.608z"/></symbol><symbol viewBox="0 0 512 512" id="editor" xmlns="http://www.w3.org/2000/svg"><path d="M256.947 353.997c-5.523 0-10 4.477-10 10s4.477 10 10 10h.095c5.523 0 9.952-4.477 9.952-10s-4.524-10-10.047-10zM463.408 316.927a10.1 10.1 0 0 0-7.08-2.93c-2.63 0-5.21 1.07-7.07 2.93s-2.93 4.44-2.93 7.07c0 2.64 1.07 5.22 2.93 7.08s4.44 2.92 7.07 2.92c2.64 0 5.21-1.06 7.08-2.92a10.09 10.09 0 0 0 2.92-7.08c0-2.63-1.06-5.21-2.92-7.07zM132.151 276.928a10.076 10.076 0 0 0-7.07-2.93c-2.63 0-5.21 1.07-7.07 2.93a10.076 10.076 0 0 0-2.93 7.07c0 2.63 1.07 5.21 2.93 7.07s4.44 2.93 7.07 2.93c2.64 0 5.21-1.07 7.07-2.93 1.86-1.86 2.93-4.44 2.93-7.07s-1.07-5.21-2.93-7.07z"/><path d="M469.998 40h-8c-5.523 0-10 4.477-10 10s4.477 10 10 10h8c12.131 0 22 9.869 22 22v281.998c0 16.542-13.458 30-30 30H50.002c-16.542 0-30-13.458-30-30v-29.996h391.664c5.523 0 10-4.477 10-10s-4.477-10-10-10H306.167v-82.253h6.284c5.523 0 10-4.477 10-10s-4.477-10-10-10h-3.035l21.315-65.18a10.001 10.001 0 0 0-2.96-10.669l-.675-.584C303.107 114.551 283.524 88.682 269.949 60h6.032c5.523 0 10-4.477 10-10v-8.331c60.443 13.221 105.759 65.676 110.205 127.524h-9.268c-5.523 0-10 4.477-10 10v40c0 5.523 4.477 10 10 10h39.966c5.523 0 10-4.477 10-10v-40c0-5.523-4.477-10-10-10h-10.653c-2.191-35.247-15.912-68.872-39.203-95.602A161.183 161.183 0 0 0 336.284 40h47.001c4.128 11.639 15.243 20 28.28 20 16.542 0 30-13.458 30-30s-13.458-30-30-30c-13.036 0-24.151 8.361-28.28 20h-97.304V10c0-5.523-4.477-10-10-10h-39.963c-5.523 0-10 4.477-10 10v10h-97.304c-4.128-11.639-15.243-20-28.28-20-16.542 0-30 13.458-30 30s13.458 30 30 30c13.037 0 24.152-8.361 28.28-20h46.826a161.152 161.152 0 0 0-40.686 33.524c-23.329 26.741-37.07 60.391-39.263 95.67H85.116c-5.523 0-10 4.477-10 10v40c0 5.523 4.477 10 10 10h39.966c5.523 0 10-4.477 10-10v-40c0-5.523-4.477-10-10-10h-9.448c4.448-61.93 49.842-114.405 110.384-127.562V50c0 5.523 4.477 10 10 10h6.032c-13.575 28.683-33.158 54.552-57.146 75.315l-.675.584a10 10 0 0 0-2.96 10.669l21.315 65.18h-.864c-5.523 0-10 4.477-10 10s4.477 10 10 10h4.656v82.253H20.002v-20.003h67.081c5.523 0 10-4.477 10-10s-4.477-10-10-10H20.002V81.999c0-12.131 9.869-22 22-22h7.985c5.523 0 10-4.477 10-10s-4.477-10-10-10h-7.985c-23.159 0-42 18.841-42 42v281.998c0 27.57 22.43 50 50 50H202V452h-14c-23.159 0-42 18.841-42 42v8c0 5.523 4.477 10 10 10h199.998c5.523 0 10-4.477 10-10v-8c0-23.159-18.841-42-42-42h-14v-38.004h151.999c27.57 0 50-22.43 50-50V81.999C511.998 58.841 493.157 40 469.998 40zm-73.08 149.193h19.966v20h-19.966v-20zM411.565 20c5.514 0 10 4.486 10 10s-4.486 10-10 10-10-4.486-10-10 4.486-10 10-10zm-311.13 20c-5.514 0-10-4.486-10-10s4.486-10 10-10 10 4.486 10 10-4.486 10-10 10zm14.647 169.192H95.116v-20h19.966v20zm171.085 104.81h-59.791v-82.253h59.791v82.253zM265.982 20v20h-19.963V20h19.963zm-63.66 126.6c16.854-15.3 31.576-32.96 43.678-52.254v55.494c0 5.523 4.477 10 10 10s10-4.477 10-10V94.346c12.102 19.294 26.823 36.954 43.678 52.254l-21.305 65.148h-64.745L202.322 146.6zM222 413.997h68V452h-68v-38.003zM323.999 472c11.457 0 20.896 8.802 21.91 20H166.091c1.013-11.198 10.453-20 21.91-20h135.998z"/></symbol><symbol viewBox="0 0 512 512" id="favorite" xmlns="http://www.w3.org/2000/svg"><path d="M256 113.271c-78.701 0-142.729 64.028-142.729 142.729S177.299 398.729 256 398.729 398.729 334.701 398.729 256 334.701 113.271 256 113.271zm93.512 129.675c0 31.896-17.722 60.571-46.251 74.835l-40.658 20.329a14.77 14.77 0 0 1-13.206 0l-40.658-20.329c-28.529-14.264-46.251-42.94-46.251-74.835V226.47c0-29.852 24.287-54.139 54.139-54.139 15.498 0 29.496 6.545 39.374 17.017 9.878-10.472 23.875-17.017 39.374-17.017 29.852 0 54.139 24.287 54.139 54.139v16.476z"/><path d="M295.374 201.861c-13.569 0-24.608 11.039-24.608 24.609 0 8.154-6.611 14.765-14.765 14.765s-14.765-6.611-14.765-14.765c0-13.569-11.039-24.609-24.608-24.609s-24.609 11.039-24.609 24.609v16.476c0 20.639 11.468 39.193 29.927 48.423L256 308.396l34.055-17.027c18.459-9.229 29.927-27.785 29.927-48.423V226.47c0-13.569-11.039-24.609-24.608-24.609z"/><path d="M477.957 262.632a15.004 15.004 0 0 1 0-13.263l19.094-39.064c10.634-21.75 2.21-47.676-19.177-59.024l-38.41-20.38a15.003 15.003 0 0 1-7.795-10.729l-7.512-42.828c-4.182-23.846-26.237-39.872-50.208-36.479l-43.053 6.09a15.01 15.01 0 0 1-12.612-4.099l-31.252-30.232c-17.401-16.834-44.66-16.833-62.062 0l-31.253 30.233a15.01 15.01 0 0 1-12.612 4.098l-43.053-6.09c-23.979-3.394-46.025 12.633-50.208 36.479l-7.513 42.827a15.003 15.003 0 0 1-7.795 10.73l-38.41 20.38c-21.388 11.347-29.811 37.274-19.177 59.023l19.094 39.063a15.004 15.004 0 0 1 0 13.263l-19.094 39.063c-10.634 21.75-2.21 47.676 19.177 59.024l38.41 20.38a15.003 15.003 0 0 1 7.795 10.729l7.513 42.828c3.807 21.708 22.421 36.933 43.814 36.931 2.107 0 4.245-.148 6.394-.452l43.053-6.09a15.006 15.006 0 0 1 12.612 4.099l31.252 30.232c8.702 8.418 19.865 12.626 31.03 12.625 11.164-.001 22.332-4.209 31.03-12.625l31.252-30.233a15.01 15.01 0 0 1 12.612-4.098l43.053 6.09c23.976 3.391 46.026-12.633 50.208-36.479l7.512-42.827a15.005 15.005 0 0 1 7.795-10.73l38.41-20.38c21.388-11.347 29.811-37.274 19.177-59.023l-19.091-39.062zM256 428.259c-94.984 0-172.259-77.276-172.259-172.259S161.016 83.741 256 83.741 428.259 161.016 428.259 256 350.984 428.259 256 428.259z"/></symbol><symbol viewBox="-22 0 134 134.06" id="fire" xmlns="http://www.w3.org/2000/svg"><path d="M23.348 134.059C8.445 84.953 39.934 67.023 39.934 67.023 37.73 93.227 52.62 113.641 52.62 113.641c5.477-1.653 15.93-9.375 15.93-9.375 0 9.375-5.516 29.78-5.516 29.78s19.309-14.929 25.387-39.726c6.07-24.797-11.563-49.691-11.563-49.691a66.494 66.494 0 0 1-16.507 48 9.514 9.514 0 0 0 1.445-2.227c2.09-4.18 5.445-15.043 3.48-40.199C62.512 14.891 30.516 0 30.516 0c2.757 21.516-5.512 26.473-24.883 67.313-19.371 40.832 17.715 66.746 17.715 66.746zm0 0"/></symbol><symbol viewBox="0 0 60 60" id="flag" xmlns="http://www.w3.org/2000/svg"><path d="M46.714 25l10.61-15.434A1.001 1.001 0 0 0 56.5 8h-30V4a1 1 0 0 0-1-1h-21V1a1 1 0 1 0-2 0v58a1 1 0 1 0 2 0V34h11.026a4.948 4.948 0 0 0-1.026 3c0 2.757 2.243 5 5 5h37a1.001 1.001 0 0 0 .824-1.566L46.714 25z"/></symbol><symbol viewBox="0 0 512 512" id="gift" xmlns="http://www.w3.org/2000/svg"><path d="M421.487 116.236h-53.079c24.92-19.045 32.982-54.016 17.535-82.408-17.072-31.379-56.489-43.015-87.864-25.945-16.413 8.929-31.06 31.928-39.242 46.798-8.185-14.872-22.825-37.85-39.228-46.775-15.198-8.268-32.708-10.125-49.305-5.225-16.596 4.901-30.29 15.97-38.559 31.17s-10.125 32.71-5.225 49.305c3.939 13.34 11.872 24.799 22.724 33.078H90.511c-20.479 0-37.139 16.66-37.139 37.139v85.875c0 13.258 6.989 24.909 17.471 31.482v203.719c0 20.706 16.845 37.551 37.551 37.551h295.212c20.706 0 37.551-16.845 37.551-37.551V270.731c10.482-6.573 17.471-18.223 17.471-31.482v-85.875c-.001-20.478-16.663-37.138-37.141-37.138zM292.502 80.223c10.769-21.151 21.935-33.683 25.515-35.69a22.913 22.913 0 0 1 10.982-2.801c8.179 0 16.115 4.357 20.291 12.034a22.902 22.902 0 0 1 1.859 17.55 22.907 22.907 0 0 1-11.094 13.724c-2.827 1.538-6.037 3.368-9.754 5.488-9.865 5.626-22.141 12.628-33.932 17.934-7.551 3.398-12.826 5.144-16.365 6.036 1.107-6.914 4.549-18.659 12.498-34.275zM168.396 53.791a22.907 22.907 0 0 1 13.724-11.094 23.183 23.183 0 0 1 6.563-.955c3.797 0 7.556.948 10.982 2.812 3.585 2.008 14.751 14.542 25.521 35.693 7.951 15.616 11.393 27.361 12.498 34.277-3.54-.891-8.815-2.638-16.365-6.036-11.791-5.306-24.069-12.308-33.932-17.934-3.716-2.12-6.926-3.95-9.754-5.488a22.907 22.907 0 0 1-11.094-13.724 22.89 22.89 0 0 1 1.857-17.551zm30.703 416.486h-86.533V276.388h86.533v193.889zm74.768 0h-33.045V276.388h33.045v193.889zm125.567 0h-83.843V276.388h83.843v193.889zm17.927-235.154H94.638v-77.621h322.723v77.621z"/></symbol><symbol viewBox="0 0 378.94 378.94" id="heart" xmlns="http://www.w3.org/2000/svg"><path d="M348.151 54.514c-19.883-19.884-46.315-30.826-74.435-30.826-28.124 0-54.559 10.942-74.449 30.826l-9.798 9.8-9.798-9.8c-19.884-19.884-46.325-30.826-74.443-30.826-28.117 0-54.56 10.942-74.442 30.826-41.049 41.053-41.049 107.848 0 148.885l147.09 147.091a16.036 16.036 0 0 0 8.527 4.461 16.29 16.29 0 0 0 3.161.303c4.161 0 8.329-1.587 11.498-4.764l147.09-147.091c41.051-41.037 41.051-107.832-.001-148.885zm-22.996 125.89L189.47 316.091 53.782 180.404c-28.368-28.364-28.368-74.514 0-102.893 13.741-13.739 32.017-21.296 51.446-21.296 19.431 0 37.702 7.557 51.438 21.296l21.305 21.312c6.107 6.098 16.897 6.098 23.003 0l21.297-21.312c13.737-13.739 32.009-21.296 51.446-21.296 19.431 0 37.701 7.557 51.438 21.296 28.371 28.379 28.371 74.528 0 102.893z"/></symbol><symbol viewBox="0 0 61.761 61.761" id="high-heel" xmlns="http://www.w3.org/2000/svg"><path d="M45.655 43.718s-.038.04-.107.107c-3.965-1.587-8.39-.422-11.851-3.527-3.498-3.137-6.139-8.059-9.034-11.783-3.185-4.1-6.469-8.122-9.807-12.097-2.375-2.826-4.553-6.097-7.6-8.239-.431-.846-.821-1.197-1.513-.698-.32.072-.567.328-.67.64-.393.445-.861 1.071-1.441 1.917-3.944 5.765-4.551 10.771-2.427 16.537 2.124 5.765 1.669 26.094 1.669 26.094s.911 1.213 1.821.606c.911-.606-1.213-19.874.456-22.15 0 0 7.13-3.945 13.199 9.558 6.069 13.502 8.951 13.805 13.199 13.805 4.249 0 16.689.304 25.791-1.366 9.101-1.668 3.639-5.005-11.685-9.404zm-13.804 2.275c-5.462-6.372-18.661-28.37-21.998-32.921-.061-.082-.117-.165-.174-.247 1.79 2.008 3.384 4.277 5.002 6.203 4.026 4.793 7.906 9.709 11.707 14.681 2.253 2.947 4.195 6.237 6.973 8.728 3.055 2.741 7.051 1.677 10.633 2.753-2.714 2.149-8.185 5.422-12.143.803z"/></symbol><symbol viewBox="0 0 512.001 512.001" id="idea" xmlns="http://www.w3.org/2000/svg"><path d="M450.372 222.019l-29.615-7.379-15.484-37.364 15.716-26.145a10 10 0 0 0-1.499-12.224l-41.44-41.438a10.002 10.002 0 0 0-12.224-1.499l-26.145 15.716-37.364-15.484-7.379-29.615a9.999 9.999 0 0 0-9.703-7.582h-58.59a9.999 9.999 0 0 0-9.703 7.582l-7.379 29.615-37.363 15.484-26.145-15.716a10.002 10.002 0 0 0-12.224 1.499l-41.438 41.438a10 10 0 0 0-1.499 12.224l15.716 26.145-15.485 37.364-29.615 7.379a9.998 9.998 0 0 0-7.583 9.703v58.591a9.998 9.998 0 0 0 7.583 9.703l29.615 7.379 15.484 37.363-15.716 26.145a10 10 0 0 0 1.499 12.224l41.438 41.438a10 10 0 0 0 12.224 1.499l26.145-15.716 17.938 7.434c.116 2.048.182 4.106.182 6.176v54.899c0 18.275 14.868 33.144 33.144 33.144h65.182c18.275 0 33.144-14.868 33.144-33.144V423.96c0-2.099.071-4.192.197-6.277l17.696-7.334 26.145 15.716a9.97 9.97 0 0 0 5.149 1.43 9.991 9.991 0 0 0 7.074-2.929l41.438-41.438a10 10 0 0 0 1.499-12.224l-15.716-26.145 15.484-37.363 29.615-7.379a9.998 9.998 0 0 0 7.583-9.703v-58.591a9.995 9.995 0 0 0-7.581-9.704zM288.644 492h-65.182c-7.247 0-13.144-5.896-13.144-13.144V472h33.121c5.522 0 10-4.478 10-10s-4.478-10-10-10h-33.121v-16.626h91.469v43.482h.001c.001 7.247-5.895 13.144-13.144 13.144zm13.442-76.626h-92.05c-1.953-29.413-13.928-56.808-34.213-77.898-20.829-21.654-31.85-50.154-31.031-80.25 1.611-59.238 51.162-107.773 110.457-108.192l.81-.003c29.589 0 57.411 11.46 78.42 32.321 21.204 21.055 32.881 49.104 32.881 78.983 0 28.536-10.786 55.671-30.372 76.405-20.675 21.888-32.889 49.535-34.902 78.634zm135.87-132.876h-.001l-26.924 6.708a10 10 0 0 0-6.821 5.875l-19.345 46.679a9.997 9.997 0 0 0 .668 8.98l14.288 23.769-30.388 30.388-23.769-14.288a10.004 10.004 0 0 0-8.981-.668l-10.591 4.389c4.769-16.107 13.405-31.121 25.434-43.855 23.107-24.464 35.833-56.476 35.833-90.14 0-35.248-13.775-68.338-38.788-93.175-25.011-24.835-58.163-38.402-93.463-38.127-34.081.241-66.348 13.593-90.856 37.595-24.515 24.009-38.525 55.99-39.452 90.055-.966 35.494 12.036 69.111 36.609 94.658 11.768 12.235 20.194 27.023 24.812 43.168l-11.023-4.568a9.996 9.996 0 0 0-8.98.668l-23.769 14.288-30.388-30.388 14.288-23.769a9.997 9.997 0 0 0 .668-8.98l-19.345-46.679a10 10 0 0 0-6.821-5.875l-26.924-6.708v-42.962l26.924-6.708a10 10 0 0 0 6.821-5.875l19.345-46.68a9.997 9.997 0 0 0-.668-8.98l-14.288-23.769 30.388-30.388 23.769 14.288a9.997 9.997 0 0 0 8.98.668l46.68-19.345a10.001 10.001 0 0 0 5.875-6.82l6.708-26.924h42.961l6.708 26.924a10.001 10.001 0 0 0 5.875 6.82l46.68 19.345a10 10 0 0 0 8.98-.668l23.769-14.288 30.388 30.388-14.288 23.769a9.997 9.997 0 0 0-.668 8.98l19.345 46.68a10 10 0 0 0 6.821 5.875l26.924 6.708v42.962z"/><path d="M209.951 250.27c-1.86-1.871-4.44-2.93-7.07-2.93s-5.21 1.06-7.069 2.93a10.06 10.06 0 0 0-2.931 7.07c0 2.63 1.07 5.21 2.931 7.07 1.859 1.859 4.439 2.93 7.069 2.93s5.21-1.07 7.07-2.93c1.86-1.87 2.93-4.44 2.93-7.07s-1.069-5.21-2.93-7.07zM263.01 250.27c-1.859-1.871-4.439-2.93-7.069-2.93s-5.21 1.06-7.07 2.93c-1.86 1.86-2.93 4.44-2.93 7.07s1.069 5.21 2.93 7.07c1.86 1.859 4.44 2.93 7.07 2.93s5.21-1.07 7.069-2.93c1.86-1.86 2.931-4.44 2.931-7.07s-1.071-5.21-2.931-7.07zM316.07 250.27c-1.86-1.871-4.44-2.93-7.07-2.93s-5.21 1.06-7.069 2.93a10.045 10.045 0 0 0-2.931 7.07c0 2.63 1.07 5.21 2.931 7.07 1.859 1.859 4.439 2.93 7.069 2.93s5.21-1.07 7.07-2.93c1.86-1.87 2.93-4.44 2.93-7.07s-1.068-5.21-2.93-7.07zM255.94 0c-5.522 0-10 4.478-10 10v24.487c0 5.523 4.478 10 10 10s10-4.478 10-10V10c0-5.522-4.477-10-10-10zM98.164 84.079l-32-31.998c-3.906-3.904-10.236-3.904-14.143 0-3.905 3.905-3.905 10.237 0 14.143L84.02 98.223c1.954 1.952 4.512 2.928 7.072 2.928s5.118-.977 7.071-2.929c3.905-3.905 3.905-10.237.001-14.143zM459.979 51.962c-3.906-3.904-10.236-3.904-14.143 0l-32 32c-3.905 3.905-3.905 10.237 0 14.143 1.953 1.952 4.512 2.929 7.071 2.929s5.118-.977 7.071-2.929l32-32c3.907-3.906 3.907-10.238.001-14.143zM284.51 454.93c-1.859-1.86-4.439-2.93-7.069-2.93s-5.21 1.069-7.07 2.93c-1.86 1.861-2.93 4.44-2.93 7.07s1.069 5.21 2.93 7.069a10.074 10.074 0 0 0 7.07 2.931c2.63 0 5.21-1.07 7.069-2.931 1.86-1.859 2.931-4.439 2.931-7.069s-1.071-5.21-2.931-7.07zM255.569 166h-.077l-.389.002c-5.522.042-9.966 4.553-9.925 10.075.042 5.497 4.51 9.925 9.998 9.925h.077l.389-.002c5.522-.042 9.966-4.553 9.925-10.075-.041-5.497-4.51-9.925-9.998-9.925zM340.938 219.69a94.433 94.433 0 0 0-48.168-46.162c-5.082-2.167-10.955.194-13.122 5.274s.194 10.955 5.274 13.122a74.45 74.45 0 0 1 37.973 36.393 10 10 0 0 0 13.335 4.708c4.984-2.381 7.092-8.352 4.708-13.335z"/></symbol><symbol viewBox="0 0 512 512" id="image" xmlns="http://www.w3.org/2000/svg"><path d="M495.484 118.641h-80.929v33.032h64.413v278.572H108.456v-52.852H75.424v69.368c0 9.122 7.394 16.516 16.516 16.516h403.544c9.122 0 16.516-7.394 16.516-16.516V135.157c0-9.122-7.394-16.516-16.516-16.516z"/><path d="M430.52 373.16V65.239c0-9.122-7.394-16.516-16.516-16.516H16.516C7.394 48.723 0 56.116 0 65.239v312.155c0 9.122 7.394 16.516 16.516 16.516h398.039c9.122 0 16.516-7.388 16.516-16.511 0-1.464-.193-2.89-.551-4.239zm-33.032-12.283H33.032V81.755h364.456v279.122z"/><path d="M264.258 102.125c-27.015 0-48.998 21.983-48.998 48.998s21.983 48.998 48.998 48.998 48.998-21.983 48.998-48.998-21.983-48.998-48.998-48.998zm0 64.963c-8.803 0-15.966-7.162-15.966-15.966s7.162-15.966 15.966-15.966c8.809 0 15.966 7.162 15.966 15.966s-7.157 15.966-15.966 15.966zM288.333 308.576l-96.895-140.943a16.51 16.51 0 0 0-13.609-7.157h-.022a16.504 16.504 0 0 0-13.615 7.196L67.848 308.609a16.527 16.527 0 0 0-.974 17.034 16.512 16.512 0 0 0 14.606 8.809h193.239a16.513 16.513 0 1 0 13.614-25.876zm-175.561-7.157l65.09-95.216 65.459 95.216H112.772z"/><path d="M373.49 307.607l-64.413-80.384a16.532 16.532 0 0 0-12.888-6.188h-.006a16.543 16.543 0 0 0-12.894 6.199l-41.841 52.301 25.798 20.634 28.953-36.192 30.004 37.442h-94.428v33.032h128.826a16.51 16.51 0 0 0 14.886-9.365 16.502 16.502 0 0 0-1.997-17.479z"/></symbol><symbol viewBox="0 0 58 58" id="like" xmlns="http://www.w3.org/2000/svg"><path d="M9.5 43c-2.757 0-5 2.243-5 5s2.243 5 5 5 5-2.243 5-5-2.243-5-5-5z"/><path d="M56.5 35c0-2.495-1.375-3.662-2.715-4.233A4.992 4.992 0 0 0 55.5 27c0-2.757-2.243-5-5-5H36.134l.729-3.41c.973-4.549.334-9.716.116-11.191C36.461 3.906 33.372 0 30.013 0h-.239C28.178 0 25.5.909 25.5 7c0 14.821-6.687 15-7 15h-1v-2h-16v38h16v-2h28c2.757 0 5-2.243 5-5a4.98 4.98 0 0 0-1.069-3.087A5.008 5.008 0 0 0 53.5 43a4.98 4.98 0 0 0-1.069-3.087A5.008 5.008 0 0 0 56.5 35zm-53 21V22h12v34h-12z"/></symbol><symbol viewBox="0 0 469.877 469.877" id="man" xmlns="http://www.w3.org/2000/svg"><path d="M133.723 146.216c3.12 40.979 19.418 23.318 22.779 41.27 5.59 29.846 32.016 51.439 48.466 58.893 9.585 4.344 19.454 6.535 29.83 6.715h.002c10.376-.18 20.245-2.371 29.83-6.715 16.449-7.453 42.876-29.047 48.466-58.893 3.361-17.951 19.659-.29 22.779-41.27 0-16.332-8.897-20.393-8.897-20.393s4.521-24.17 6.294-42.768C335.468 59.873 319.741 0 235.862 0c-.367 0-.708.018-1.063.021-.356-.004-.697-.021-1.063-.021-83.879 0-99.606 59.873-97.41 83.055 1.772 18.598 6.294 42.768 6.294 42.768s-8.897 4.061-8.897 20.393zM365.655 309.986c-18.168-6.553-49.795-25.438-55.214-28.354a9.482 9.482 0 0 0-4.772-1.292c-3.801 0-7.074 2.233-8.599 5.458-14.979 25.08-42.753 83.751-62.131 85.102-19.38-1.351-47.152-60.021-62.133-85.102-1.524-3.225-4.796-5.458-8.598-5.458a9.486 9.486 0 0 0-4.773 1.292c-5.417 2.915-37.046 21.801-55.213 28.354-60.987 21.99-88.416 44.418-88.416 59.709v100.182h438.265V369.695c-.001-15.291-27.43-37.718-88.416-59.709z"/></symbol><symbol viewBox="0 0 512 512" id="message" xmlns="http://www.w3.org/2000/svg"><path d="M467 30.999H45c-24.813 0-45 20.187-45 45v240c0 24.813 20.187 45 45 45h106v105c0 13.391 16.237 19.978 25.606 10.606l115.607-115.606H467c24.813 0 45-20.187 45-45v-240c0-24.813-20.187-45-45-45zm15 285c0 8.271-6.729 15-15 15H286a15 15 0 0 0-10.606 4.394L181 429.786v-83.787c0-8.284-6.716-15-15-15H45c-8.271 0-15-6.729-15-15v-240c0-8.271 6.729-15 15-15h422c8.271 0 15 6.729 15 15z"/><path d="M106 150.999h120c8.284 0 15-6.716 15-15s-6.716-15-15-15H106c-8.284 0-15 6.716-15 15s6.716 15 15 15zM406 180.999H106c-8.284 0-15 6.716-15 15s6.716 15 15 15h300c8.284 0 15-6.716 15-15s-6.716-15-15-15zM406 240.999H106c-8.284 0-15 6.716-15 15s6.716 15 15 15h300c8.284 0 15-6.716 15-15s-6.716-15-15-15zM406 120.999H286c-8.284 0-15 6.716-15 15s6.716 15 15 15h120c8.284 0 15-6.716 15-15s-6.716-15-15-15z"/></symbol><symbol viewBox="0 0 512.001 512.001" id="new" xmlns="http://www.w3.org/2000/svg"><path d="M497.052 301.696l-19.097-39.063a15.004 15.004 0 0 1 0-13.263l19.096-39.065c10.632-21.751 2.208-47.676-19.178-59.024l-38.409-20.378a15.004 15.004 0 0 1-7.796-10.729l-7.512-42.828c-4.183-23.847-26.243-39.865-50.208-36.479l-43.053 6.09c-4.644.661-9.241-.837-12.613-4.099l-31.251-30.231c-17.401-16.836-44.661-16.835-62.06-.001l-31.252 30.232a15.004 15.004 0 0 1-12.613 4.099l-43.053-6.09C114.089 37.484 92.028 53.5 87.845 77.346l-7.512 42.828a15.002 15.002 0 0 1-7.795 10.729l-38.41 20.38c-21.387 11.346-29.811 37.272-19.178 59.024l19.096 39.063a15.004 15.004 0 0 1 0 13.263L14.95 301.698c-10.632 21.751-2.208 47.676 19.178 59.024L72.537 381.1a15.004 15.004 0 0 1 7.796 10.729l7.512 42.829c4.183 23.847 26.242 39.861 50.208 36.479l43.053-6.09a14.998 14.998 0 0 1 12.613 4.099l31.251 30.231c8.702 8.419 19.864 12.627 31.03 12.626 11.164-.001 22.332-4.209 31.03-12.625l31.252-30.232a15.002 15.002 0 0 1 12.613-4.099l43.053 6.09c2.152.304 4.285.452 6.395.452 21.389-.002 40.006-15.226 43.814-36.93l7.512-42.828a15.002 15.002 0 0 1 7.795-10.729l38.41-20.38c21.387-11.348 29.811-37.274 19.178-59.026zM201.86 315.06a14.765 14.765 0 0 1-27.972 6.603L142.8 259.486v55.575c0 8.154-6.611 14.765-14.765 14.765s-14.765-6.611-14.765-14.765V196.94a14.765 14.765 0 0 1 27.972-6.603l31.088 62.178V196.94c0-8.154 6.611-14.765 14.765-14.765s14.765 6.611 14.765 14.765v118.12zm73.825-73.825c8.154 0 14.765 6.611 14.765 14.765s-6.611 14.765-14.765 14.765h-34.452v29.53h44.295c8.154 0 14.765 6.611 14.765 14.765s-6.611 14.765-14.765 14.765h-59.06c-8.154 0-14.765-6.611-14.765-14.765V196.94c0-8.154 6.611-14.765 14.765-14.765h59.06c8.154 0 14.765 6.611 14.765 14.765s-6.611 14.765-14.765 14.765h-44.295v29.53h34.452zm123.042 73.825a14.765 14.765 0 0 1-27.972 6.603l-16.323-32.647-16.323 32.647a14.76 14.76 0 0 1-16.599 7.767 14.765 14.765 0 0 1-11.373-14.37V196.94c0-8.154 6.611-14.765 14.765-14.765s14.765 6.611 14.765 14.765v55.575l1.558-3.117a14.766 14.766 0 0 1 26.414 0l1.558 3.117V196.94c0-8.154 6.611-14.765 14.765-14.765s14.765 6.611 14.765 14.765v118.12z"/></symbol><symbol viewBox="0 0 297.545 297.545" id="parka" xmlns="http://www.w3.org/2000/svg"><path d="M67.167 88.633c.734 12.609 3.743 45.933 16.061 82.942 13.579 40.807-9.543 100.97-20.487 125.97h52.923c3.297 0 24.93-3.1 24.93-27.063v-24.937H125.36c-4.163 0-7.538-3.336-7.538-7.5s3.375-7.5 7.538-7.5h15.234v-43H125.36c-4.163 0-7.538-3.338-7.538-7.5 0-4.164 3.375-7.5 7.538-7.5h15.234v-33.672c-33.001-2.602-62.148-22.685-73.427-50.24zM219.976 62.043C219.976 27.832 188.049 0 148.808 0c-39.246 0-71.175 27.832-71.175 62.043 0 17.039 7.925 32.494 20.728 43.719a53.888 53.888 0 0 1-4.151-20.785c0-29.877 24.306-54.184 54.184-54.184 29.877 0 54.184 24.307 54.184 54.184a53.842 53.842 0 0 1-4.632 21.881c13.557-11.303 22.03-27.21 22.03-44.815zM229.942 88.633c-11.314 27.381-40.349 47.559-73.349 50.223v33.69h14.939c4.164 0 7.539 3.336 7.539 7.5 0 4.162-3.375 7.5-7.539 7.5h-14.939v43h14.939c4.164 0 7.539 3.336 7.539 7.5s-3.375 7.5-7.539 7.5h-14.939v24.937c0 24.338 22.268 27.063 24.514 27.063h53.371c-9.909-25-31.112-85.153-17.528-125.97 12.425-37.333 13.215-70.822 12.992-82.943z"/><path d="M69.118 176.058c-7.075-21.262-11.22-41.065-13.647-56.874l-36.77 134.559c-1.353 4.951-.721 9.476 1.781 12.752 2.488 3.26 6.666 5.051 11.764 5.051h24.551c10.236-27.001 21.556-67.74 12.321-95.488zM147.461 124.055c21.473-.108 40.039-17.578 40.039-39.078 0-21.563-17.544-39.105-39.106-39.105-21.563 0-39.106 17.543-39.106 39.105-.001 20.873 17.563 38.003 38.173 39.078zM279.013 253.227l-32.416-138.205c-.471-2.004-1.223-4.045-2.19-6.074-1.181 17.108-4.504 41.026-13.184 67.11-9.255 27.803.72 68.487 9.951 95.487h23.366c5.152 0 9.463-1.854 12.14-5.231 2.69-3.393 3.518-8.037 2.333-13.087z"/></symbol><symbol viewBox="0 0 512 512" id="pin" xmlns="http://www.w3.org/2000/svg"><path d="M256 0C133.64 0 34.093 95.521 34.093 212.935c0 159.348 203.604 290.745 212.277 296.26A17.889 17.889 0 0 0 256 512c3.344 0 6.693-.939 9.63-2.805 8.673-5.515 212.277-136.912 212.277-296.26C477.907 95.521 378.366 0 256 0zm-.006 472.392C216.583 444.95 69.981 334.612 69.981 212.935c0-97.627 83.445-177.047 186.019-177.047s186.019 79.42 186.019 177.047c0 121.48-146.632 231.979-186.025 259.457z"/><path d="M256 97.501c-55.74 0-101.084 45.344-101.084 101.084 0 55.734 45.344 101.078 101.084 101.078s101.084-45.344 101.084-101.078c0-55.733-45.344-101.084-101.084-101.084zm0 166.269c-35.948 0-65.196-29.243-65.196-65.19 0-35.948 29.249-65.196 65.196-65.196 35.948 0 65.196 29.243 65.196 65.196 0 35.947-29.248 65.19-65.196 65.19z"/></symbol><symbol viewBox="0 0 512 512" id="reviews" xmlns="http://www.w3.org/2000/svg"><path d="M256.284 199.225l-.284-.546-.284.546a14.994 14.994 0 0 1-10.831 7.868l-.607.102.431.438a15.002 15.002 0 0 1 4.137 12.732l-.091.608c2.316-1.155 4.423-1.851 7.244-1.851 2.866 0 4.978.721 7.244 1.851l-.091-.608a14.996 14.996 0 0 1 4.137-12.732l.431-.438-.607-.102a14.994 14.994 0 0 1-10.829-7.868zM396.284 199.225l-.284-.546-.284.546a14.994 14.994 0 0 1-10.831 7.868l-.607.102.431.438a15.002 15.002 0 0 1 4.137 12.732l-.091.608c2.316-1.155 4.423-1.851 7.244-1.851 2.866 0 4.978.721 7.244 1.851l-.091-.608a14.996 14.996 0 0 1 4.137-12.732l.431-.438-.607-.102a14.994 14.994 0 0 1-10.829-7.868zM116.284 199.225l-.284-.546-.284.546a14.994 14.994 0 0 1-10.831 7.868l-.607.102.431.438a15.002 15.002 0 0 1 4.137 12.732l-.091.608c2.316-1.155 4.423-1.851 7.244-1.851 2.866 0 4.978.721 7.244 1.851l-.091-.608a14.996 14.996 0 0 1 4.137-12.732l.431-.438-.607-.102a14.994 14.994 0 0 1-10.829-7.868z"/><path d="M467 46.003H45c-24.813 0-45 20.187-45 45v240c0 24.813 20.187 45 45 45h142.972l55.547 83.32c5.934 8.901 19.032 8.894 24.962 0l55.547-83.32H467c24.813 0 45-20.187 45-45v-240c0-24.813-20.187-45-45-45zM169.318 207.67l-15.389 15.657 3.246 21.713c1.791 11.976-10.674 21.052-21.529 15.642L116 250.885l-19.647 9.797c-10.835 5.403-23.322-3.647-21.529-15.642l3.246-21.713-15.388-15.657c-8.487-8.637-3.738-23.307 8.223-25.31l21.654-3.622 10.136-19.475c5.59-10.74 21.013-10.757 26.611 0l10.136 19.475 21.654 3.622c11.943 2.001 16.723 16.66 8.222 25.31zm140 0l-15.389 15.657 3.246 21.713c1.791 11.976-10.674 21.052-21.529 15.642L256 250.885l-19.647 9.797c-10.836 5.403-23.322-3.648-21.529-15.642l3.246-21.713-15.389-15.657c-8.487-8.637-3.738-23.307 8.223-25.31l21.654-3.622 10.136-19.475c5.59-10.74 21.013-10.757 26.611 0l10.136 19.475 21.654 3.622c11.944 2.001 16.724 16.66 8.223 25.31zm140 0l-15.389 15.657 3.246 21.713c1.806 12.078-10.757 21.01-21.529 15.642L396 250.885l-19.647 9.797c-10.835 5.403-23.322-3.647-21.529-15.642l3.246-21.713-15.389-15.657c-8.487-8.637-3.738-23.307 8.223-25.31l21.654-3.622 10.136-19.475c5.59-10.74 21.013-10.757 26.611 0l10.136 19.475 21.654 3.622c11.944 2.001 16.724 16.66 8.223 25.31z"/></symbol><symbol viewBox="0 0 80 80" id="shooter1" xmlns="http://www.w3.org/2000/svg"><path d="M77.692 37.692h-6.151C70.41 22.09 57.91 9.59 42.307 8.46V2.308a2.308 2.308 0 1 0-4.616 0v6.151C22.09 9.59 9.59 22.09 8.46 37.692H2.308a2.308 2.308 0 1 0 0 4.616h6.151C9.59 57.91 22.09 70.41 37.692 71.54v6.152a2.308 2.308 0 1 0 4.616 0v-6.151C57.91 70.41 70.41 57.91 71.54 42.307h6.152a2.308 2.308 0 1 0 0-4.616zM42.308 66.91v-5.967a2.308 2.308 0 1 0-4.616 0v5.967C24.636 65.8 14.2 55.364 13.09 42.308h5.967a2.308 2.308 0 1 0 0-4.616H13.09C14.2 24.636 24.636 14.2 37.692 13.09v5.967a2.308 2.308 0 1 0 4.616 0V13.09C55.364 14.2 65.8 24.636 66.91 37.692h-5.967a2.308 2.308 0 1 0 0 4.616h5.967C65.8 55.364 55.364 65.8 42.308 66.91z"/><path d="M40 27c-7.168 0-13 5.832-13 13s5.832 13 13 13 13-5.832 13-13-5.832-13-13-13zm7.465 10.804l-8.167 8.167a1.826 1.826 0 0 1-1.3.539c-.491 0-.953-.191-1.3-.539l-4.163-4.162a1.826 1.826 0 0 1-.538-1.3c0-.491.19-.953.538-1.3a1.826 1.826 0 0 1 1.3-.539c.491 0 .953.191 1.3.539l2.863 2.862 6.867-6.867a1.826 1.826 0 0 1 1.3-.538 1.84 1.84 0 0 1 1.3 3.138z"/></symbol><symbol viewBox="0 0 55.867 55.867" id="star" xmlns="http://www.w3.org/2000/svg"><path d="M55.818 21.578a1.002 1.002 0 0 0-.808-.681l-18.09-2.629-8.09-16.392a.998.998 0 0 0-1.792 0l-8.091 16.393-18.09 2.629a1.002 1.002 0 0 0-.555 1.705l13.091 12.76-3.091 18.018c-.064.375.09.754.397.978a.992.992 0 0 0 1.053.076l16.182-8.506 16.18 8.506a1 1 0 0 0 1.451-1.054l-3.09-18.017 13.091-12.761c.272-.267.37-.664.252-1.025z"/></symbol><symbol viewBox="0 0 512 512" id="student" xmlns="http://www.w3.org/2000/svg"><g clip-path="url(#azclip0)"><path d="M256.001 372.001c-20.953 0-38 17.047-38 38s17.047 38 38 38 38-17.047 38-38-17.046-38-38-38zm0 56c-9.925 0-18-8.075-18-18s8.075-18 18-18 18 8.075 18 18-8.075 18-18 18zM256.001 75.2c-49.202 0-89.229 40.028-89.229 89.229v53.677c.001 49.201 40.028 89.229 89.229 89.229s89.229-40.028 89.229-89.229v-53.677c0-49.201-40.027-89.229-89.229-89.229zm69.228 142.905c0 38.173-31.056 69.229-69.229 69.229s-69.229-31.056-69.229-69.229v-24.237h18.732c24.591 0 47.934-11.19 63.445-29.841l6.038 5.931c13.727 13.483 31.327 21.667 50.243 23.51v24.637zm.001-44.78c-13.63-1.758-26.271-7.855-36.228-17.635l-14.39-14.134a10.003 10.003 0 0 0-15.585 1.993c-11.211 18.702-31.72 30.32-53.524 30.32h-18.73v-9.439c0-38.174 31.056-69.23 69.228-69.23 38.173 0 69.229 31.056 69.229 69.229v8.896z"/><path d="M478.069 492.001h-20.11v-75.266c0-34.488-22.938-64.896-55.952-74.479-9.791-20.252-30.543-34.255-54.504-34.255H164.5c-23.962 0-44.713 14.003-54.504 34.255-33.014 9.583-55.952 39.991-55.952 74.479v75.266h-20.11c-5.522 0-10 4.477-10 10s4.478 10 10 10h444.135c5.522 0 10-4.477 10-10s-4.478-10-10-10zM104.001 368.5V492H74.044v-75.265c0-21.358 11.856-40.607 30.015-50.531a60.289 60.289 0 0 0-.058 2.296zm284 123.501H164.008v-46.333c0-5.523-4.478-10-10-10s-10 4.477-10 10v46.333h-20.007v-123.5c0-22.332 18.168-40.5 40.499-40.5h183.002c22.331 0 40.499 18.168 40.499 40.5v123.5zm49.957 0h-29.957v-123.5c0-.77-.029-1.533-.058-2.296 18.16 9.923 30.015 29.172 30.015 50.53v75.266zM508.702 95.024l-10.327-9.328c.113-1.585.171-3.174.171-4.758s-.058-3.173-.171-4.758l10.327-9.328a10 10 0 0 0 1.953-12.427l-16.148-27.921a9.999 9.999 0 0 0-11.731-4.509l-13.216 4.271a65.853 65.853 0 0 0-8.245-4.768l-2.911-13.59a10.001 10.001 0 0 0-9.778-7.906h-32.252a10 10 0 0 0-9.778 7.906l-2.911 13.59a65.853 65.853 0 0 0-8.245 4.768l-13.216-4.271a9.998 9.998 0 0 0-11.731 4.509l-16.148 27.921a10 10 0 0 0 1.953 12.427l10.327 9.328a66.952 66.952 0 0 0-.171 4.758c0 1.584.058 3.173.171 4.758l-10.327 9.328a10 10 0 0 0-1.953 12.427l16.148 27.921a10 10 0 0 0 11.731 4.509l13.216-4.271a65.853 65.853 0 0 0 8.245 4.768l2.911 13.59a10.001 10.001 0 0 0 9.778 7.906h32.252a10 10 0 0 0 9.778-7.906l2.911-13.59a65.853 65.853 0 0 0 8.245-4.768l13.216 4.271a9.999 9.999 0 0 0 11.731-4.509l16.148-27.921a10 10 0 0 0-1.953-12.427zm-30.714-21.28a46.494 46.494 0 0 1 0 14.386 10.005 10.005 0 0 0 3.177 8.969l8.129 7.342-8.054 13.924-10.42-3.368a10.006 10.006 0 0 0-9.368 1.744 45.92 45.92 0 0 1-12.429 7.188 10.002 10.002 0 0 0-6.188 7.239l-2.293 10.705H424.46l-2.293-10.705a10.002 10.002 0 0 0-6.188-7.239 45.935 45.935 0 0 1-12.429-7.188 9.998 9.998 0 0 0-9.368-1.744l-10.42 3.368-8.054-13.924 8.129-7.342a10.003 10.003 0 0 0 3.177-8.969 46.494 46.494 0 0 1 0-14.386 10.005 10.005 0 0 0-3.177-8.969l-8.129-7.342 8.054-13.924 10.42 3.368a9.996 9.996 0 0 0 9.368-1.744 45.92 45.92 0 0 1 12.429-7.188 10.002 10.002 0 0 0 6.188-7.239l2.293-10.705h16.082l2.293 10.705a10.002 10.002 0 0 0 6.188 7.239 45.935 45.935 0 0 1 12.429 7.188 10.004 10.004 0 0 0 9.368 1.744l10.42-3.368 8.054 13.924-8.129 7.342a10.005 10.005 0 0 0-3.177 8.969zM509.07 310.921a10.029 10.029 0 0 0-7.069-2.93c-2.63 0-5.21 1.06-7.07 2.93a10.076 10.076 0 0 0-2.93 7.07c0 2.63 1.069 5.21 2.93 7.07 1.86 1.86 4.44 2.93 7.07 2.93s5.21-1.07 7.069-2.93a10.077 10.077 0 0 0 2.931-7.07c0-2.64-1.07-5.21-2.931-7.07zM466.334 308.001h-49.243c-5.522 0-10 4.477-10 10s4.478 10 10 10h49.243c5.522 0 10-4.477 10-10s-4.478-10-10-10zM403.268 259.996h-25.6c-5.522 0-10 4.477-10 10s4.478 10 10 10h25.6c5.523 0 10-4.477 10-10s-4.478-10-10-10zM502.001 259.996h-59.31c-5.522 0-10 4.477-10 10s4.478 10 10 10h59.31c5.523 0 10-4.477 10-10s-4.478-10-10-10z"/><path d="M439.57 73.871a10.029 10.029 0 0 0-7.069-2.93c-2.63 0-5.21 1.06-7.07 2.93a10.058 10.058 0 0 0-2.93 7.07c0 2.63 1.069 5.21 2.93 7.07a10.08 10.08 0 0 0 7.07 2.93c2.63 0 5.21-1.07 7.069-2.93a10.077 10.077 0 0 0 2.931-7.07c0-2.639-1.07-5.21-2.931-7.07zM235.82 216.801a10.072 10.072 0 0 0-7.069-2.93c-2.63 0-5.21 1.07-7.07 2.93a10.076 10.076 0 0 0-2.93 7.07c0 2.63 1.069 5.21 2.93 7.07a10.077 10.077 0 0 0 7.07 2.93c2.63 0 5.21-1.07 7.069-2.93a10.077 10.077 0 0 0 2.931-7.07c0-2.63-1.07-5.21-2.931-7.07zM290.32 216.801a10.072 10.072 0 0 0-7.069-2.93c-2.641 0-5.21 1.07-7.07 2.93a10.076 10.076 0 0 0-2.93 7.07c0 2.63 1.069 5.21 2.93 7.07a10.077 10.077 0 0 0 7.07 2.93c2.63 0 5.21-1.07 7.069-2.93a10.077 10.077 0 0 0 2.931-7.07c0-2.63-1.07-5.21-2.931-7.07zM161.061 402.931a10.056 10.056 0 0 0-7.069-2.93c-2.631 0-5.21 1.07-7.07 2.93a10.076 10.076 0 0 0-2.93 7.07c0 2.63 1.069 5.21 2.93 7.07a10.076 10.076 0 0 0 7.07 2.93c2.63 0 5.21-1.07 7.069-2.93a10.059 10.059 0 0 0 2.931-7.07c0-2.63-1.07-5.209-2.931-7.07z"/><circle cx="81" cy="134" r="71.5"/><path d="M75.66 162.853l41.183-48.336a7.31 7.31 0 0 0 0-10.37c-2.875-2.863-7.538-2.863-10.414 0l-35.975 43.152-13.883-13.822a7.385 7.385 0 0 0-10.414 0A7.292 7.292 0 0 0 44 138.661c0 1.877.72 3.753 2.157 5.185l19.09 19.007c2.874 2.863 7.537 2.863 10.413 0z"/></g><defs><clipPath id="azclip0"><path d="M0 0h512.001v512.001H0z"/></clipPath></defs></symbol><symbol viewBox="0 0 512 512" id="time" xmlns="http://www.w3.org/2000/svg"><path d="M256 0C114.845 0 0 114.839 0 256s114.845 256 256 256c141.161 0 256-114.839 256-256S397.155 0 256 0zm0 474.628C135.45 474.628 37.372 376.55 37.372 256S135.45 37.372 256 37.372s218.628 98.077 218.628 218.622c0 120.556-98.078 218.634-218.628 218.634z"/><path d="M343.202 256h-80.973V143.883c0-10.321-8.365-18.686-18.686-18.686s-18.686 8.365-18.686 18.686v130.803c0 10.321 8.365 18.686 18.686 18.686h99.659c10.321 0 18.686-8.365 18.686-18.686S353.523 256 343.202 256z"/></symbol><symbol viewBox="0 0 512 512" id="wireframe" xmlns="http://www.w3.org/2000/svg"><path d="M502 374h-49.5c-5.523 0-10 4.477-10 10s4.477 10 10 10H492v60c0 20.953-17.047 38-38 38s-38-17.047-38-38V10c0-5.523-4.477-10-10-10H10C4.477 0 0 4.477 0 10v444c0 31.981 26.019 58 58 58h396c31.981 0 58-26.019 58-58v-70c0-5.523-4.477-10-10-10zM58 492c-20.953 0-38-17.047-38-38V20h376v434c0 14.527 5.381 27.813 14.238 38H58z"/><path d="M222.07 74.93C220.21 73.07 217.63 72 215 72s-5.21 1.07-7.07 2.93S205 79.37 205 82s1.07 5.21 2.93 7.07S212.37 92 215 92s5.21-1.07 7.07-2.93S225 84.63 225 82s-1.07-5.21-2.93-7.07z"/><path d="M335.752 72H253.5c-5.523 0-10 4.477-10 10s4.477 10 10 10h72.252v68H90.249V92h80.501c5.523 0 10-4.477 10-10s-4.477-10-10-10H80.249c-5.523 0-10 4.477-10 10v88c0 5.523 4.477 10 10 10h255.503c5.523 0 10-4.477 10-10V82c0-5.523-4.477-10-10-10zM128.249 200.058h-48c-5.523 0-10 4.477-10 10v48c0 5.523 4.477 10 10 10h48c5.523 0 10-4.477 10-10v-48c0-5.523-4.477-10-10-10zm-10 48h-28v-28h28v28zM231.752 200.058h-48c-5.523 0-10 4.477-10 10v48c0 5.523 4.477 10 10 10h48c5.523 0 10-4.477 10-10v-48c0-5.523-4.477-10-10-10zm-10 48h-28v-28h28v28zM335.752 200.058h-48c-5.523 0-10 4.477-10 10v48c0 5.523 4.477 10 10 10h48c5.523 0 10-4.477 10-10v-48c0-5.523-4.477-10-10-10zm-10 48h-28v-28h28v28zM128 289.089H80.249c-5.523 0-10 4.477-10 10s4.477 10 10 10H128c5.523 0 10-4.477 10-10s-4.477-10-10-10zM231.876 289.089h-47.751c-5.523 0-10 4.477-10 10s4.477 10 10 10h47.751c5.523 0 10-4.477 10-10s-4.477-10-10-10zM335.628 289.089h-47.751c-5.523 0-10 4.477-10 10s4.477 10 10 10h47.751c5.523 0 10-4.477 10-10s-4.477-10-10-10zM128 329.089H80.249c-5.523 0-10 4.477-10 10s4.477 10 10 10H128c5.523 0 10-4.477 10-10s-4.477-10-10-10zM335.752 377.089H80.249c-5.523 0-10 4.477-10 10V448c0 5.523 4.477 10 10 10h255.503c5.523 0 10-4.477 10-10v-60.911c0-5.523-4.477-10-10-10zm-10 60.911H90.249v-40.911h235.503V438zM231.876 329.089h-47.751c-5.523 0-10 4.477-10 10s4.477 10 10 10h47.751c5.523 0 10-4.477 10-10s-4.477-10-10-10zM335.628 329.089h-47.751c-5.523 0-10 4.477-10 10s4.477 10 10 10h47.751c5.523 0 10-4.477 10-10s-4.477-10-10-10zM453.07 135.42c-1.86-1.86-4.44-2.93-7.07-2.93s-5.21 1.07-7.07 2.93a10.076 10.076 0 0 0-2.93 7.07c0 2.64 1.07 5.22 2.93 7.07 1.86 1.87 4.44 2.94 7.07 2.94s5.21-1.07 7.07-2.94c1.86-1.86 2.93-4.43 2.93-7.07 0-2.63-1.07-5.2-2.93-7.07z"/><path d="M481.833 0h-15.667C449.533 0 436 13.533 436 30.167v75.5c0 5.523 4.477 10 10 10s10-4.477 10-10V75h36v195h-36v-90c0-5.523-4.477-10-10-10s-10 4.477-10 10v100c0 1.683.424 3.338 1.234 4.813l28 51a10 10 0 0 0 17.532 0l28-51A9.997 9.997 0 0 0 512 280V30.167C512 13.533 498.467 0 481.833 0zM474 310.221L462.898 290h22.204L474 310.221zM492 55h-36V30.167C456 24.561 460.561 20 466.167 20h15.667C487.439 20 492 24.561 492 30.167V55z"/></symbol></svg>