<svg xmlns="http://www.w3.org/2000/svg" width="40" height="40" viewBox="0 0 40 40"><defs><clipPath id="nt11a"><path fill="#fff" d="M17 29V11h15v18zm4.368-12.591c0 2.094 1.509 3.79 3.37 3.79 1.86 0 3.37-1.696 3.37-3.79 0-2.093-1.51-3.79-3.37-3.79-1.861 0-3.37 1.697-3.37 3.79zm9.266 11.372v-3.37s-1.697-3.367-5.896-3.369c-4.303-.002-6.74 3.37-6.74 3.37v3.369z"/></clipPath><clipPath id="nt11b"><path fill="#fff" d="M7 29V9h17v20zm5-14.5c0 2.485 1.79 4.5 3.999 4.5s4-2.015 4-4.5c0-2.486-1.791-4.5-4-4.5s-4 2.014-4 4.5zM23 28v-4s-2.018-4-7.001-4.001c-5.108-.002-8 4-8 4v4z"/></clipPath></defs><g><g><g><path fill="#fafbfc" d="M20 0c11.045 0 20 8.954 20 19.999 0 11.046-8.955 20-20 20C8.953 40-.002 31.045-.002 20c0-11.045 8.955-20 20-20z"/></g><g><path fill="#828294" d="M24.738 12.619c1.86 0 3.37 1.697 3.37 3.79 0 2.094-1.51 3.79-3.37 3.79-1.861 0-3.37-1.696-3.37-3.79 0-2.093 1.509-3.79 3.37-3.79zm-6.74 15.162v-3.37s2.437-3.37 6.74-3.369c4.199.002 5.896 3.37 5.896 3.37v3.369z"/><path fill="none" stroke="#e6edf4" stroke-linecap="round" stroke-linejoin="round" stroke-miterlimit="20" stroke-width="2" d="M24.738 12.619c1.86 0 3.37 1.697 3.37 3.79 0 2.094-1.51 3.79-3.37 3.79-1.861 0-3.37-1.696-3.37-3.79 0-2.093 1.509-3.79 3.37-3.79zm-6.74 15.162v-3.37s2.437-3.37 6.74-3.369c4.199.002 5.896 3.37 5.896 3.37v3.369z" clip-path="url(&quot;#nt11a&quot;)"/></g><g><path fill="#828294" d="M15.999 10c2.209 0 4 2.014 4 4.5 0 2.485-1.791 4.5-4 4.5s-4-2.015-4-4.5c0-2.486 1.791-4.5 4-4.5zm-8 18v-4s2.892-4.003 8-4.001c4.983.002 7 4 7 4v4z"/><path fill="none" stroke="#e6edf4" stroke-linecap="round" stroke-linejoin="round" stroke-miterlimit="20" stroke-width="2" d="M15.999 10c2.209 0 4 2.014 4 4.5 0 2.485-1.791 4.5-4 4.5s-4-2.015-4-4.5c0-2.486 1.791-4.5 4-4.5zm-8 18v-4s2.892-4.003 8-4.001c4.983.002 7 4 7 4v4z" clip-path="url(&quot;#nt11b&quot;)"/></g></g></g></svg>