<svg xmlns="http://www.w3.org/2000/svg" viewBox="0 0 341 174" width="341" height="174">
	<defs>
		<clipPath clipPathUnits="userSpaceOnUse" id="cp1">
			<path d="M-81 -180L1839 -180L1839 1572L-81 1572Z" />
		</clipPath>
	</defs>
	<style>
		tspan { white-space:pre }
		.shp0 { opacity: 0.302;fill: #373657 }
	</style>
	<g id="25.05_widget" clip-path="url(#cp1)">
		<g id="1_Blok">
			<g id="BG">
				<g id="11">
					<path id="Прямоугольник 1" class="shp0" d="M150.53 1.19C189.96 1.19 221.92 31.33 221.92 68.5C221.92 105.68 189.96 135.82 150.53 135.82C111.11 135.82 79.15 105.68 79.15 68.5C79.15 31.33 111.11 1.19 150.53 1.19ZM65.61 51.26C100.74 51.26 129.22 78.47 129.22 112.04C129.22 145.6 100.74 172.81 65.61 172.81C30.48 172.81 2 145.6 2 112.04C2 78.47 30.48 51.26 65.61 51.26ZM238.31 45.55C270.48 45.55 296.55 71.1 296.55 102.62C296.55 134.13 270.48 159.69 238.31 159.69C206.15 159.69 180.07 134.13 180.07 102.62C180.07 71.1 206.15 45.55 238.31 45.55ZM295.3 87.39C319.99 87.39 340 106.51 340 130.1C340 153.69 319.99 172.81 295.3 172.81C270.61 172.81 250.59 153.69 250.59 130.1C250.59 106.51 270.61 87.39 295.3 87.39ZM59.39 126.85L296.55 126.85L296.55 172.81L59.39 172.81L59.39 126.85Z" />
				</g>
			</g>
		</g>
	</g>
</svg>
