<svg xmlns="http://www.w3.org/2000/svg" width="129" height="127" viewBox="0 0 129 127"><g><g><g><path fill="#474873" d="M64.5 101c28.442 0 51.5 5.82 51.5 13s-23.058 13-51.5 13c-28.443 0-51.5-5.82-51.5-13s23.057-13 51.5-13z"/></g><g><path fill="#ffc25e" d="M42 105c6.567.531 11.883 3.528 12 6 .095 2.02-3.769 4.055-7 4-2.686-.046-3.542-2.08-5-4-1.53-.031-3.424 2.075-6 2-3.444-.1-5.94-1.743-6-4-.084-3.18 7.026-4.403 12-4z"/></g><g><path fill="#ffc25e" d="M82 105c6.53-.874 11.881 3.386 12 6 .092 2.02-2 3.386-4.543 3.349-2.686-.039-3.903-1.282-5.735-2.848-1.502.294-3.115 4.575-5.722 4.499-4.633-.136-6.99-1.742-7-4-.015-3.683 6.054-6.338 11-7z"/></g><g/><g><path fill="#8e8fbb" d="M0 65s16.78-2.97 25-17c8.22-14.03 10 5 10 5l2 16-7 7h-4s-4.577 2-10 2C10.576 78 .588 73.234 0 65z"/></g><g><path fill="#8e8fbb" d="M129 65.058s-16.78-2.958-25-16.925c-8.22-13.967-10 4.978-10 4.978L92 69.04l7 6.969h4S107.576 78 113 78c5.423 0 15.411-4.745 16-12.942z"/></g><g><path fill="#8e8fbb" d="M64 12c22.644 0 41 21.938 41 49s-6.92 49-41 49c-29.843 0-41-21.938-41-49s18.356-49 41-49z"/></g><g opacity=".73"><path fill="#3a3b5e" d="M64 30c17.673 0 32 16.118 32 36s-14.327 36-32 36c-17.673 0-32-16.118-32-36s14.327-36 32-36z"/></g><g><path fill="#8e8fbb" d="M72 15s5.255-3.364 6-8c0 0-1.956 2.977-11 6 0 0 4.298-6 3-13 0 0-3.153 9.885-8 12 0 0 2.053-5-2-8 0 0 1.96 7-2 9-3.961 2 5 3 5 3z"/></g><g><path fill="#fff" d="M64 25c17.673 0 32 16.118 32 36S81.673 97 64 97c-17.673 0-32-16.118-32-36s14.327-36 32-36z"/></g><g><path fill="#8e8fbb" d="M64 21c4.418 0 8 3.134 8 7s-3.582 7-8 7-8-3.134-8-7 3.582-7 8-7z"/></g><g><g><path fill="#8e8fbb" d="M25 37a3 3 0 1 1 0 6 3 3 0 0 1 0-6z"/></g><g><path fill="#8e8fbb" d="M45.5 18C57.374 18 67 27.626 67 39.5S57.374 61 45.5 61C33.625 61 24 51.374 24 39.5S33.625 18 45.5 18z"/></g><g><path fill="#fefefe" d="M45.5 24C54.06 24 61 30.94 61 39.5 61 48.06 54.06 55 45.5 55 36.94 55 30 48.06 30 39.5 30 30.94 36.94 24 45.5 24z"/></g><g><path fill="#21203d" d="M45.5 31a8.5 8.5 0 1 1 0 17 8.5 8.5 0 0 1 0-17z"/></g><g><path fill="#fff" d="M51 33a3 3 0 1 1 0 6 3 3 0 0 1 0-6z"/></g></g><g><g><path fill="#8e8fbb" d="M104 37a3 3 0 1 1 0 6 3 3 0 0 1 0-6z"/></g><g><path fill="#8e8fbb" d="M83.5 18c11.874 0 21.5 9.626 21.5 21.5S95.374 61 83.5 61 62 51.374 62 39.5 71.626 18 83.5 18z"/></g><g><path fill="#fefefe" d="M83.5 24C92.06 24 99 30.94 99 39.5 99 48.06 92.06 55 83.5 55 74.94 55 68 48.06 68 39.5 68 30.94 74.94 24 83.5 24z"/></g><g><path fill="#21203d" d="M83.5 31a8.5 8.5 0 1 1 0 17 8.5 8.5 0 0 1 0-17z"/></g><g><path fill="#fff" d="M89 33a3 3 0 1 1 0 6 3 3 0 0 1 0-6z"/></g></g><g><path fill="#ff8605" d="M64.354 48.475v15l7.5-7s-5.019-4.14-7.5-8z"/></g><g><path fill="#ffc25e" d="M64.354 48.475v15l-7.5-7s5.018-4.14 7.5-8z"/></g></g></g></svg>